<?xml version="1.0" encoding="UTF-8" standalone="no"?>
<!-- Created with Inkscape (http://www.inkscape.org/) -->

<svg
   width="20.205761mm"
   height="20.215199mm"
   viewBox="0 0 20.205761 20.215199"
   version="1.1"
   id="svg1"
   xml:space="preserve"
   xmlns:inkscape="http://www.inkscape.org/namespaces/inkscape"
   xmlns:sodipodi="http://sodipodi.sourceforge.net/DTD/sodipodi-0.dtd"
   xmlns="http://www.w3.org/2000/svg"
   xmlns:svg="http://www.w3.org/2000/svg"><sodipodi:namedview
     id="namedview1"
     pagecolor="#ffffff"
     bordercolor="#666666"
     borderopacity="1.0"
     inkscape:showpageshadow="2"
     inkscape:pageopacity="0.0"
     inkscape:pagecheckerboard="0"
     inkscape:deskcolor="#d1d1d1"
     inkscape:document-units="mm" /><defs
     id="defs1" /><g
     inkscape:label="Camada 1"
     inkscape:groupmode="layer"
     id="layer1"
     transform="translate(-2.7240542,-2.1312894)"><path
       style="fill:#000000"
       d="m 4.3337089,22.268132 c -0.617281,-0.187768 -1.091543,-0.584237 -1.406706,-1.175963 -0.158586,-0.297748 -0.169328,-0.680074 -0.195973,-6.975316 -0.01977,-4.6718124 0.0019,-6.7993942 0.07247,-7.1261778 0.140762,-0.6514676 0.538527,-1.1645189 1.108637,-1.4299581 l 0.467157,-0.217505 4.603901,-8.792e-4 4.6039011,-8.793e-4 -0.13212,0.4275194 c -0.307933,0.9964282 0.204931,2.1014897 1.184784,2.5528365 0.261261,0.120344 0.576043,0.166376 1.147552,0.16781 l 0.787536,0.002 v 0.767926 c 0,0.8771385 0.133033,1.2847565 0.567087,1.7375745 0.679171,0.708534 1.511487,0.883458 2.425548,0.509769 0.148805,-0.06083 0.157459,0.190995 0.156628,4.557946 l -8.79e-4,4.622339 -0.214445,0.460553 c -0.118347,0.254168 -0.358134,0.57015 -0.535088,0.705119 -0.661174,0.504303 -0.594152,0.500073 -7.7909,0.491667 -3.6429231,-0.0043 -6.7250141,-0.03862 -6.8490901,-0.07636 z M 16.89794,20.087659 c 0.324579,-0.32467 0.202791,-0.542314 -1.488438,-2.659939 -0.900826,-1.127946 -1.717968,-2.088287 -1.81587,-2.134092 -0.357708,-0.16736 -0.606986,0.07474 -2.021926,1.963713 l -1.408542,1.880432 -0.8459671,-1.295405 c -0.465281,-0.712473 -0.925638,-1.350574 -1.023015,-1.418002 -0.358578,-0.248296 -0.570011,-0.06575 -1.730622,1.494175 -0.617313,0.829704 -1.143354,1.569305 -1.168979,1.643559 -0.07353,0.213062 0.0863,0.536435 0.310156,0.627514 0.119256,0.04852 2.465669,0.0758 5.6242001,0.06539 4.915721,-0.01621 5.433466,-0.03177 5.569003,-0.167341 z M 17.960911,10.255677 17.654897,9.9496626 V 8.6806055 7.4115476 h -1.24792 c -1.143852,0 -1.268605,-0.016272 -1.495974,-0.1951199 C 14.610661,6.9801788 14.386774,6.4801543 14.46144,6.2123868 14.67727,5.4383822 14.896955,5.3414536 16.435372,5.3414536 h 1.219525 V 4.1219289 c 0,-1.3950078 0.0762,-1.6381295 0.589812,-1.8818547 0.425776,-0.2020438 0.883451,-0.119416 1.223812,0.2209442 l 0.25647,0.25647 V 4.029471 5.3414536 h 1.292921 c 1.167896,0 1.315644,0.017874 1.527903,0.1848368 0.538556,0.4236279 0.504149,1.3663702 -0.06248,1.7118784 -0.242902,0.1481127 -0.459461,0.1727538 -1.52079,0.1730424 l -1.237556,3.364e-4 v 1.2108199 c 0,0.747062 -0.04118,1.3012091 -0.107527,1.4468165 -0.139478,0.30612 -0.509239,0.492507 -0.977053,0.492507 -0.304744,0 -0.42981,-0.05632 -0.6795,-0.306014 z"
       id="path1" /></g></svg>
