<?xml version="1.0" encoding="UTF-8" standalone="no"?>
<!-- Created with Inkscape (http://www.inkscape.org/) -->

<svg
   width="38.343681mm"
   height="36.536022mm"
   viewBox="0 0 38.343681 36.536022"
   version="1.1"
   id="svg1"
   xml:space="preserve"
   xmlns:inkscape="http://www.inkscape.org/namespaces/inkscape"
   xmlns:sodipodi="http://sodipodi.sourceforge.net/DTD/sodipodi-0.dtd"
   xmlns="http://www.w3.org/2000/svg"
   xmlns:svg="http://www.w3.org/2000/svg"><sodipodi:namedview
     id="namedview1"
     pagecolor="#ffffff"
     bordercolor="#666666"
     borderopacity="1.0"
     inkscape:showpageshadow="2"
     inkscape:pageopacity="0.0"
     inkscape:pagecheckerboard="0"
     inkscape:deskcolor="#d1d1d1"
     inkscape:document-units="mm" /><defs
     id="defs1" /><g
     inkscape:label="Camada 1"
     inkscape:groupmode="layer"
     id="layer1"
     transform="translate(0,-8.8884628)"><path
       style="fill:#000000"
       d="m 0,40.975655 v -4.525327 l 4.2395,-6.206439 c 2.331725,-3.413542 4.621292,-6.765152 5.087926,-7.448024 l 0.848427,-1.241584 0.712173,0.487777 c 0.893686,0.612097 2.069268,1.597066 2.839004,2.378679 l 0.591895,0.601027 -1.643253,2.354466 C 7.538119,34.737361 4.808237,38.650636 2.60778,41.808515 1.251868,43.754385 0.110427,45.381235 0.071243,45.423725 0.030403,45.468025 3e-6,43.569885 3e-6,40.975655 Z m 17.003246,-0.39204 c -0.945439,-0.0843 -2.721987,-0.35909 -3.009669,-0.46551 -0.173968,-0.0644 -0.143868,-0.10425 0.456286,-0.60482 2.094029,-1.746576 3.567507,-3.971914 4.012374,-6.059739 0.0455,-0.213528 0.101442,-0.470581 0.124319,-0.57123 0.03128,-0.137613 0.0995,-0.182997 0.275058,-0.182997 0.128405,0 0.539451,-0.05801 0.913437,-0.128909 4.100375,-0.777342 8.113732,-4.135705 9.784292,-8.187458 0.621,-1.506167 0.891153,-2.9896 0.84647,-4.64804 l -0.02827,-1.049254 0.406661,-0.138876 c 2.076245,-0.709044 4.04686,-2.459543 5.559313,-4.938343 0.252594,-0.413984 0.481476,-0.753025 0.508625,-0.753426 0.134671,-0.002 0.760377,1.897276 1.044751,3.171225 0.375578,1.682528 0.449035,2.471561 0.446739,4.798594 -0.0024,2.412386 -0.104098,3.334873 -0.566831,5.140682 -0.346796,1.353364 -0.979191,2.911196 -1.181789,2.911196 -0.07501,0 -5.254409,-1.415643 -5.510037,-1.506013 -0.05824,-0.02059 -0.09172,-0.0104 -0.07439,0.02263 0.01732,0.03304 0.755115,1.31301 1.639535,2.844384 l 1.608037,2.784317 -0.324766,0.387897 c -1.042502,1.245154 -3.516621,3.270165 -5.725367,4.686084 l -0.705543,0.452289 -1.830153,-1.896347 c -1.519438,-1.574394 -1.836727,-1.86723 -1.868873,-1.724843 -0.02129,0.09433 -0.212547,1.306087 -0.425003,2.692799 -0.212456,1.386714 -0.410693,2.549464 -0.440526,2.583884 -0.02983,0.0344 -0.545791,0.13517 -1.146572,0.2239 -1.283104,0.18948 -3.574821,0.26411 -4.788106,0.15592 z m 1.663052,-9.815934 C 18.198612,27.157966 16.049371,23.942903 12.228913,21.137954 11.756839,20.791361 11.049067,20.313775 10.656087,20.076651 L 9.941578,19.645516 9.888558,19.131734 C 9.809028,18.361022 9.402549,16.875325 9.043141,16.04167 7.813344,13.189132 5.475733,11.106822 1.48621,9.3100698 1.064323,9.1200658 0.695123,8.9405878 0.665765,8.9112298 c -0.05959,-0.05959 1.303441,0.0029 2.790851,0.128008 3.732267,0.31385 7.014996,1.4466452 9.111192,3.1440642 0.695058,0.562832 2.66462,1.96828 3.729755,2.661493 2.944655,1.916446 5.67136,3.216854 8.019299,3.824529 1.127906,0.291915 1.861075,0.385043 3.173392,0.40309 l 1.34198,0.01846 0.02273,1.025433 c 0.06008,2.710138 -1.112127,5.343889 -3.394006,7.625767 -1.326529,1.326529 -2.845374,2.321223 -4.395942,2.878909 -0.710029,0.255373 -1.815173,0.531641 -2.129984,0.532461 -0.199746,5.21e-4 -0.223014,-0.03288 -0.268734,-0.385758 z M 19.70304,15.096363 c -0.589782,-0.327167 -1.265751,-0.717018 -1.502152,-0.866336 -0.522372,-0.329944 -2.04793,-1.309017 -2.078305,-1.333815 -0.01201,-0.0098 0.255183,-0.425846 0.593766,-0.924532 0.37865,-0.557698 0.668811,-0.906685 0.75383,-0.90666 0.383645,1.14e-4 1.73622,0.646169 2.601685,1.242691 0.576774,0.397541 1.806474,1.612282 1.806474,1.784498 0,0.09367 -0.877585,1.411953 -1.016925,1.527595 -0.05331,0.04424 -0.494021,-0.154908 -1.158373,-0.523441 z"
       id="path14" /></g></svg>
