<?xml version="1.0" encoding="UTF-8" standalone="no"?>
<!-- Created with Inkscape (http://www.inkscape.org/) -->

<svg
   width="67.743401mm"
   height="47.032269mm"
   viewBox="0 0 67.743401 47.032269"
   version="1.1"
   id="svg1"
   xml:space="preserve"
   xmlns:inkscape="http://www.inkscape.org/namespaces/inkscape"
   xmlns:sodipodi="http://sodipodi.sourceforge.net/DTD/sodipodi-0.dtd"
   xmlns="http://www.w3.org/2000/svg"
   xmlns:svg="http://www.w3.org/2000/svg"><sodipodi:namedview
     id="namedview1"
     pagecolor="#ffffff"
     bordercolor="#666666"
     borderopacity="1.0"
     inkscape:showpageshadow="2"
     inkscape:pageopacity="0.0"
     inkscape:pagecheckerboard="0"
     inkscape:deskcolor="#d1d1d1"
     inkscape:document-units="mm" /><defs
     id="defs1" /><g
     inkscape:label="Camada 1"
     inkscape:groupmode="layer"
     id="layer1"
     transform="translate(-3.5657242,-3.6324905)"><path
       style="fill:#000000"
       d="M 11.95638,50.406283 C 7.7778894,49.794868 4.7454914,46.772805 3.8155234,42.293174 3.3125164,39.870203 3.6047514,35.264534 4.3736614,33.496827 5.4590714,31.001495 10.855698,24.961177 21.068245,14.810969 30.0747,5.8594918 30.784531,5.2165328 32.258872,4.6746008 c 2.603605,-0.957022 5.198612,-1.105401 17.878587,-1.022278 l 12.03263,0.07888 1.32292,0.661459 c 0.91322,0.456611 1.51005,0.989213 1.92716,1.719791 0.56326,0.98654 0.59875,1.30961 0.52317,4.7625002 -0.0708,3.235409 -0.15748,3.854838 -0.68489,4.894791 -0.4204,0.828963 -4.42399,4.982924 -13.18016,13.6752 -10.82358,10.744596 -12.74563,12.542255 -13.790965,12.898437 -1.784538,0.608053 -21.917246,0.618668 -23.090075,0.01217 -1.108535,-0.573246 -1.55749,-2.767533 -0.762396,-3.726241 0.906327,-1.092831 1.644074,-1.163738 12.10789,-1.163738 11.310586,0 10.612546,0.136227 10.828697,-2.113302 0.11352,-1.181427 0.04974,-1.377358 -0.688735,-2.115835 l -0.81384,-0.81384 -11.763883,0.07409 -11.763882,0.07409 -1.144715,0.804755 c -1.8405636,1.293948 -2.3303196,2.432036 -2.3354766,5.42715 -0.0038,2.1896 0.08663,2.71031 0.675765,3.892557 0.432729,0.868373 1.0342336,1.585015 1.6536456,1.970178 l 0.973528,0.605359 14.672153,0.07479 14.672149,0.07479 12.98305,-12.973231 12.98304,-12.97323 h 1.20064 c 1.28655,0 2.16641,0.564672 2.49551,1.601552 0.50134,1.579606 0.37366,1.726937 -13.56407,15.65101 -7.38692,7.379685 -13.76298,13.539254 -14.17272,13.691506 -0.90471,0.336174 -29.171613,0.32567 -31.477219,-0.0117 z"
       id="path1" /></g></svg>
