<?xml version="1.0" encoding="UTF-8" standalone="no"?>
<!-- Created with Inkscape (http://www.inkscape.org/) -->

<svg
   width="33.62273mm"
   height="22.237762mm"
   viewBox="0 0 33.62273 22.237762"
   version="1.1"
   id="svg1"
   xml:space="preserve"
   xmlns:inkscape="http://www.inkscape.org/namespaces/inkscape"
   xmlns:sodipodi="http://sodipodi.sourceforge.net/DTD/sodipodi-0.dtd"
   xmlns="http://www.w3.org/2000/svg"
   xmlns:svg="http://www.w3.org/2000/svg"><sodipodi:namedview
     id="namedview1"
     pagecolor="#ffffff"
     bordercolor="#666666"
     borderopacity="1.0"
     inkscape:showpageshadow="2"
     inkscape:pageopacity="0.0"
     inkscape:pagecheckerboard="0"
     inkscape:deskcolor="#d1d1d1"
     inkscape:document-units="mm" /><defs
     id="defs1" /><g
     inkscape:label="Camada 1"
     inkscape:groupmode="layer"
     id="layer1"
     transform="translate(-6.6195313,-6.0730823)"><path
       style="fill:#000000"
       d="m 9.0596754,28.204056 c -0.905514,-0.282994 -1.546,-1.022516 -1.911339,-2.20688 -0.352245,-1.141918 -0.579682,-3.51905 -0.519028,-5.424791 0.111913,-3.516324 0.895546,-6.639885 2.380771,-9.489752 1.5178736,-2.9125155 3.2461146,-4.4616775 5.4830976,-4.9149485 0.821014,-0.1663586 2.244685,-0.1072832 3.129674,0.1298663 0.872667,0.2338474 1.832052,0.6483977 2.597613,1.1224277 1.456579,0.9019044 1.761895,0.9841304 3.48652,0.9389744 1.364009,-0.03571 1.617785,-0.108693 2.66226,-0.7655944 1.190912,-0.749 2.310754,-1.2071787 3.485404,-1.4260381 0.816954,-0.1522139 2.292061,-0.1037835 2.992187,0.098239 2.01257,0.5807301 3.629371,2.1272225 5.02258,4.8041666 1.192345,2.291 1.887882,4.595175 2.253088,7.464027 0.142705,1.121011 0.16258,4.105066 0.03416,5.129463 -0.12472,0.994915 -0.329411,2.088752 -0.464163,2.480415 -0.325091,0.944893 -0.8169,1.568273 -1.504226,1.906642 -0.394449,0.194187 -0.504657,0.217384 -1.130114,0.237871 l -0.693042,0.0227 -0.526099,-0.266573 c -1.239051,-0.627826 -3.239958,-2.454996 -5.229721,-4.77563 -0.369121,-0.430501 -0.701479,-0.670213 -1.14573,-0.826355 -0.346995,-0.121959 -0.594478,-0.127199 -6.007394,-0.127199 -6.225235,0 -5.936585,-0.0181 -6.589593,0.413101 -0.162761,0.107476 -0.606657,0.551029 -0.986435,0.985674 -1.015134,1.161791 -2.57734,2.706562 -3.42922,3.390947 -0.415683,0.333952 -1.003534,0.731708 -1.326085,0.897264 -0.566728,0.290885 -0.59261,0.297291 -1.1837226,0.292988 -0.332379,-0.0024 -0.72903,-0.04337 -0.881446,-0.09101 z m 7.7247056,-9.890913 0.27949,-0.143756 V 17.052763 15.93614 h 1.175624 1.175625 l 0.15402,-0.345252 c 0.228887,-0.513073 0.218286,-1.210104 -0.0255,-1.67694 L 19.363343,13.568695 H 18.279372 17.195401 V 12.44738 11.326064 l -0.246609,-0.110516 c -0.31824,-0.142618 -1.587157,-0.157761 -1.907108,-0.02276 l -0.213727,0.09018 v 1.141345 1.141346 l -1.165285,0.01796 -1.165284,0.01796 -0.127851,0.328811 c -0.184148,0.473601 -0.174047,1.207535 0.02285,1.6605 l 0.15008,0.345252 h 1.109862 1.109861 v 1.103781 1.103781 l 0.203379,0.120139 c 0.329887,0.194869 0.52479,0.234601 1.046106,0.213254 0.34726,-0.01422 0.575927,-0.06274 0.772707,-0.163952 z m 13.859702,0.01305 c 0.36876,-0.125649 0.796479,-0.521238 0.984345,-0.910401 0.07148,-0.148075 0.138676,-0.454859 0.153733,-0.70189 0.0221,-0.362615 -0.0011,-0.499757 -0.133812,-0.789548 -0.453232,-0.989988 -1.519649,-1.380501 -2.471284,-0.904963 -0.709709,0.354645 -1.042563,0.954461 -0.983984,1.773176 0.08713,1.217711 1.247426,1.943726 2.451002,1.533626 z m 4.677682,-2.377661 c 0.632237,-0.322844 1.009726,-0.942936 1.008388,-1.656452 -0.0025,-1.336487 -1.392637,-2.202577 -2.592804,-1.615389 -1.416928,0.693237 -1.334955,2.736301 0.133531,3.328113 0.417076,0.168085 1.06038,0.143135 1.450885,-0.05627 z M 30.62702,13.306275 c 0.379853,-0.142121 0.813259,-0.538263 1.004714,-0.91833 0.169436,-0.336355 0.202025,-0.969209 0.07033,-1.365712 -0.507436,-1.5277451 -2.674718,-1.6453181 -3.367359,-0.182675 -0.174663,0.368834 -0.210773,0.973111 -0.08096,1.354755 0.331015,0.973149 1.402498,1.475176 2.373275,1.111962 z"
       id="path1" /></g></svg>
