<?xml version="1.0" encoding="UTF-8" standalone="no"?>
<!-- Created with Inkscape (http://www.inkscape.org/) -->

<svg
   width="47.389511mm"
   height="42.595364mm"
   viewBox="0 0 47.389511 42.595364"
   version="1.1"
   id="svg1"
   xml:space="preserve"
   xmlns:inkscape="http://www.inkscape.org/namespaces/inkscape"
   xmlns:sodipodi="http://sodipodi.sourceforge.net/DTD/sodipodi-0.dtd"
   xmlns="http://www.w3.org/2000/svg"
   xmlns:svg="http://www.w3.org/2000/svg"><sodipodi:namedview
     id="namedview1"
     pagecolor="#ffffff"
     bordercolor="#666666"
     borderopacity="1.0"
     inkscape:showpageshadow="2"
     inkscape:pageopacity="0.0"
     inkscape:pagecheckerboard="0"
     inkscape:deskcolor="#d1d1d1"
     inkscape:document-units="mm" /><defs
     id="defs1" /><g
     inkscape:label="Camada 1"
     inkscape:groupmode="layer"
     id="layer1"
     transform="translate(-6.2802421,-5.0113019)"><path
       style="fill:#000000"
       d="m 27.249245,46.929013 c -0.99005,-0.49336 -1.60494,-1.05104 -2.26089,-2.050521 C 23.647245,42.835028 7.0829302,14.090611 6.6516512,13.058414 c -0.204275,-0.488899 -0.371409,-1.473503 -0.371409,-2.188011 0,-2.3894508 1.164317,-4.2426048 3.286425,-5.2307498 l 1.3437828,-0.625724 18.887015,-0.0026 c 13.39326,-0.0018 19.18021,0.08526 19.89501,0.299418 3.0388,0.910448 4.82077,4.7703618 3.57677,7.7476508 -0.43127,1.032197 -16.99559,29.776614 -18.3367,31.820078 -1.13231,1.72532 -2.96003,2.728186 -4.97209,2.728186 -0.91966,0 -1.78571,-0.216467 -2.71121,-0.677665 z"
       id="path1" /></g></svg>
