<?xml version="1.0" encoding="UTF-8" standalone="no"?>
<!-- Created with Inkscape (http://www.inkscape.org/) -->

<svg
   width="135.22781mm"
   height="122.17711mm"
   viewBox="0 0 135.22781 122.17711"
   version="1.1"
   id="svg1"
   xml:space="preserve"
   xmlns:inkscape="http://www.inkscape.org/namespaces/inkscape"
   xmlns:sodipodi="http://sodipodi.sourceforge.net/DTD/sodipodi-0.dtd"
   xmlns="http://www.w3.org/2000/svg"
   xmlns:svg="http://www.w3.org/2000/svg"><sodipodi:namedview
     id="namedview1"
     pagecolor="#ffffff"
     bordercolor="#666666"
     borderopacity="1.0"
     inkscape:showpageshadow="2"
     inkscape:pageopacity="0.0"
     inkscape:pagecheckerboard="0"
     inkscape:deskcolor="#d1d1d1"
     inkscape:document-units="mm" /><defs
     id="defs1" /><g
     inkscape:label="Camada 1"
     inkscape:groupmode="layer"
     id="layer1"
     transform="translate(-6.3365408,-7.694721)"><path
       style="fill:#000000"
       d="m 18.968021,129.40981 c -5.147201,-2.18 -9.3399585,-6.10025 -11.5509205,-10.80016 -0.556239,-1.18242 -1.042334,-2.40296 -1.0802112,-2.71231 -0.05311,-0.43377 5.9502527,-6.52949 26.2376557,-26.641323 l 26.306524,-26.078865 7.229863,7.226278 c 3.976425,3.974453 7.199895,7.314799 7.163267,7.42299 -0.177982,0.525717 -52.507216,52.05734 -52.850969,52.04541 -0.218282,-0.008 -0.873125,-0.21549 -1.455209,-0.46202 z M 115.54093,89.15828 c -1.42637,-0.34601 -2.34874,-1.003547 -4.54295,-3.238554 l -2.16169,-2.201895 13.49037,-13.603151 13.49037,-13.603152 2.49804,2.487648 c 2.84417,2.83235 3.46258,3.98873 3.19134,5.967616 -0.0923,0.673713 -0.40676,1.611425 -0.6987,2.083803 -0.71114,1.150642 -20.96596,21.182708 -21.89249,21.651724 -0.98226,0.497226 -2.40927,0.690055 -3.37429,0.455961 z m -8.94679,-12.405071 c -0.91965,-3.569965 -3.09752,-6.197752 -6.06616,-7.319321 -2.05171,-0.775151 -7.043794,-0.740423 -9.538291,0.06635 -3.695747,1.195287 -7.597582,3.522508 -10.40694,6.207142 L 78.962064,77.256113 69.290485,67.786971 59.618906,58.31783 65.3031,52.629288 c 7.314876,-7.320471 8.685227,-9.393247 9.403701,-14.223922 0.520738,-3.5012 -0.44406,-7.514617 -2.734062,-11.373283 -2.113351,-3.561006 -7.553357,-8.125268 -12.184489,-10.222999 -3.311451,-1.499966 -9.397352,-2.805661 -13.103384,-2.811257 -4.193797,-0.0063 -5.624137,-0.686755 -5.624137,-2.675439 0,-1.6965793 1.004991,-2.5527499 3.571874,-3.0429457 2.897151,-0.5532666 12.75588,-0.7839237 16.307794,-0.3815409 12.155668,1.3770689 23.533539,6.0993026 34.756787,14.4253426 4.044796,3.000661 6.503306,5.150116 11.179446,9.774101 l 4.0357,3.990688 0.68466,2.119067 c 2.10171,6.504936 5.8594,11.570235 10.72994,14.463772 1.84105,1.093748 4.8083,2.22007 6.60599,2.507533 0.56529,0.09039 1.0278,0.238944 1.0278,0.330113 0,0.09117 -5.15225,5.316998 -11.44945,11.612952 l -11.44946,11.447189 z"
       id="path1" /></g></svg>
