<?xml version="1.0" encoding="UTF-8" standalone="no"?>
<!-- Created with Inkscape (http://www.inkscape.org/) -->

<svg
   width="42.212578mm"
   height="42.598427mm"
   viewBox="0 0 42.212578 42.598427"
   version="1.1"
   id="svg1"
   xml:space="preserve"
   xmlns:inkscape="http://www.inkscape.org/namespaces/inkscape"
   xmlns:sodipodi="http://sodipodi.sourceforge.net/DTD/sodipodi-0.dtd"
   xmlns="http://www.w3.org/2000/svg"
   xmlns:svg="http://www.w3.org/2000/svg"><sodipodi:namedview
     id="namedview1"
     pagecolor="#ffffff"
     bordercolor="#666666"
     borderopacity="1.0"
     inkscape:showpageshadow="2"
     inkscape:pageopacity="0.0"
     inkscape:pagecheckerboard="0"
     inkscape:deskcolor="#d1d1d1"
     inkscape:document-units="mm" /><defs
     id="defs1" /><g
     inkscape:label="Camada 1"
     inkscape:groupmode="layer"
     id="layer1"
     transform="translate(-9.17999,-11.350824)"><path
       style="fill:#000000"
       d="M 11.858095,53.632713 C 11.352056,53.38006 11.085984,53.177419 10.539661,52.628592 9.4971529,51.581306 9.0235389,50.538507 9.2257209,49.735571 c 0.07585,-0.301239 0.291108,-0.535493 2.1402131,-2.32912 1.130733,-1.096808 3.539326,-3.405229 5.352429,-5.129824 1.813103,-1.724596 5.442968,-5.183402 8.066367,-7.686237 2.623399,-2.502834 5.726703,-5.462939 6.896232,-6.57801 l 2.126416,-2.027402 1.550566,1.554558 1.550566,1.554559 -0.459585,0.472844 c -0.539344,0.554904 -10.359799,11.056945 -14.08356,15.061026 -4.922999,5.293596 -8.538575,9.096157 -8.755555,9.208362 -0.121477,0.06282 -0.417883,0.112919 -0.668047,0.112919 -0.376093,0 -0.553437,-0.0518 -1.083668,-0.316533 z M 43.102117,34.420354 c -0.2776,-0.09813 -1.12147,-0.914259 -5.342682,-5.166997 -9.755102,-9.827964 -9.110352,-9.154884 -9.258495,-9.665308 -0.155356,-0.535276 -0.116344,-1.026954 0.118845,-1.497816 0.222718,-0.445892 6.127642,-6.373015 6.556663,-6.581311 0.476667,-0.231429 1.199818,-0.206219 1.687001,0.05881 0.518665,0.282156 13.962768,13.859663 14.294838,14.436682 0.29875,0.519119 0.31294,1.20524 0.0359,1.735055 -0.12296,0.235143 -1.20351,1.382748 -3.25331,3.455186 -2.75501,2.785437 -3.10744,3.115955 -3.44267,3.228652 -0.45584,0.153239 -0.95723,0.152178 -1.39608,-0.003 z m 6.03233,-7.876929 c 0.20536,-0.225898 0.21346,-0.377705 0.0346,-0.648907 -0.0742,-0.112508 -2.01968,-2.098964 -4.32329,-4.414346 -3.12301,-3.138968 -4.232914,-4.209787 -4.363452,-4.209787 -0.304329,0 -0.574423,0.277394 -0.574423,0.589947 0,0.26019 0.12805,0.404762 2.260515,2.552168 1.24328,1.251994 3.14448,3.175279 4.22489,4.273965 1.0804,1.098686 2.03258,2.025493 2.11594,2.05957 0.21158,0.08649 0.42537,0.01721 0.62521,-0.20261 z m -9.762536,-9.85163 c 0.310848,-0.39518 0.254808,-0.487902 -1.147354,-1.898386 -1.129404,-1.136108 -1.335928,-1.312162 -1.539257,-1.312162 -0.320366,0 -0.566548,0.243671 -0.566548,0.560771 0,0.223324 0.143265,0.398576 1.269362,1.552773 1.192753,1.222518 1.28618,1.300906 1.548046,1.298859 0.209256,-0.0016 0.317815,-0.05192 0.435751,-0.201855 z m 5.043496,1.630333 -1.50328,-1.524871 0.49782,-0.483372 c 0.43565,-0.423006 0.53403,-0.483372 0.78776,-0.483372 0.27369,0 0.35918,0.06923 1.52397,1.234015 1.16218,1.162182 1.23401,1.250791 1.23401,1.522214 0,0.249934 -0.062,0.352734 -0.46671,0.774229 -0.25669,0.267316 -0.49001,0.486029 -0.5185,0.486029 -0.0285,0 -0.72827,-0.686192 -1.55507,-1.524872 z"
       id="path14" /></g></svg>
