<?xml version="1.0" encoding="UTF-8" standalone="no"?>
<!-- Created with Inkscape (http://www.inkscape.org/) -->

<svg
   width="33.523697mm"
   height="42.64056mm"
   viewBox="0 0 33.523697 42.64056"
   version="1.1"
   id="svg1"
   xml:space="preserve"
   xmlns:inkscape="http://www.inkscape.org/namespaces/inkscape"
   xmlns:sodipodi="http://sodipodi.sourceforge.net/DTD/sodipodi-0.dtd"
   xmlns="http://www.w3.org/2000/svg"
   xmlns:svg="http://www.w3.org/2000/svg"><sodipodi:namedview
     id="namedview1"
     pagecolor="#ffffff"
     bordercolor="#666666"
     borderopacity="1.0"
     inkscape:showpageshadow="2"
     inkscape:pageopacity="0.0"
     inkscape:pagecheckerboard="0"
     inkscape:deskcolor="#d1d1d1"
     inkscape:document-units="mm" /><defs
     id="defs1" /><g
     inkscape:label="Camada 1"
     inkscape:groupmode="layer"
     id="layer1"
     transform="translate(-4.2858645,-2.9984175)"><path
       style="fill:#000000"
       d="M 23.75154,45.599254 C 20.608774,45.34466 18.168257,44.575622 16.04405,43.170526 15.146322,42.576707 13.762672,41.2445 13.039945,40.278111 12.469473,39.515309 5.0717436,28.33244 4.6797536,27.640325 4.3618176,27.078962 4.2515286,26.55925 4.2948996,25.82678 c 0.06497,-1.097244 0.585353,-1.924468 1.526046,-2.425866 0.371687,-0.198112 0.507598,-0.222267 1.250972,-0.222324 0.728866,-5.6e-5 0.893635,0.0279 1.307277,0.221809 0.260313,0.12203 0.648246,0.383136 0.862073,0.580235 0.213828,0.197099 1.1830134,1.444927 2.1537444,2.772951 l 1.764968,2.414588 0.04395,-10.500653 c 0.02422,-5.786025 0.07724,-10.5942653 0.1181,-10.7091495 0.361901,-1.0175639 1.28739,-1.678387 2.350595,-1.678387 1.040313,0 1.921757,0.6085832 2.284442,1.5772678 0.159257,0.4253535 0.165103,0.6668731 0.165103,6.8204747 0,6.814455 2.2e-4,6.818284 0.404448,7.03462 0.212566,0.113762 0.641969,0.116187 0.850095,0.0048 0.378231,-0.202423 0.369507,-0.01856 0.41342,-8.713191 l 0.0417,-8.2564128 0.221898,-0.4169905 c 0.464923,-0.8736842 1.214611,-1.3283177 2.196647,-1.3321134 0.996019,-0.00385 1.814063,0.5260786 2.242937,1.4529734 0.173884,0.3758031 0.176017,0.4608512 0.217307,8.6640423 l 0.0417,8.284513 0.233996,0.201245 c 0.383847,0.330122 1.072497,0.222659 1.281017,-0.1999 0.03825,-0.07752 0.08832,-3.499803 0.11125,-7.605075 l 0.0417,-7.4641307 0.188211,-0.352227 c 0.438191,-0.8200525 1.147949,-1.2787301 2.072124,-1.3390997 0.516568,-0.033744 0.658101,-0.0092 1.106009,0.191811 0.579573,0.2600971 1.024319,0.7008221 1.292498,1.2808121 0.177347,0.3835486 0.17846,0.4274329 0.219948,8.6700203 l 0.0417,8.28452 0.233995,0.201238 c 0.309382,0.26607 0.723769,0.266082 1.033176,2.9e-5 l 0.233995,-0.201208 0.0417,-5.784517 0.0417,-5.784517 0.274808,-0.558058 c 0.316156,-0.642024 0.69774,-0.994751 1.333734,-1.232873 1.178823,-0.441364 2.46377,0.06835 3.019858,1.197928 l 0.255821,0.519646 -0.004,11.908945 c -0.0026,7.586196 -0.03473,12.125886 -0.08866,12.506607 -0.294128,2.076668 -1.037704,3.983661 -2.119122,5.434752 -1.894586,2.542232 -4.664184,3.939603 -8.510305,4.293782 -0.848859,0.07817 -2.549796,0.09324 -3.335924,0.02956 z"
       id="path1"
       inkscape:export-filename="hand-icon.svg"
       inkscape:export-xdpi="392"
       inkscape:export-ydpi="392" /></g></svg>
