<?xml version="1.0" encoding="UTF-8" standalone="no"?>
<!-- Created with Inkscape (http://www.inkscape.org/) -->

<svg
   width="12.380326mm"
   height="10.243428mm"
   viewBox="0 0 12.380326 10.243428"
   version="1.1"
   id="svg1"
   xml:space="preserve"
   xmlns:inkscape="http://www.inkscape.org/namespaces/inkscape"
   xmlns:sodipodi="http://sodipodi.sourceforge.net/DTD/sodipodi-0.dtd"
   xmlns="http://www.w3.org/2000/svg"
   xmlns:svg="http://www.w3.org/2000/svg"><sodipodi:namedview
     id="namedview1"
     pagecolor="#ffffff"
     bordercolor="#666666"
     borderopacity="1.0"
     inkscape:showpageshadow="2"
     inkscape:pageopacity="0.0"
     inkscape:pagecheckerboard="0"
     inkscape:deskcolor="#d1d1d1"
     inkscape:document-units="mm" /><defs
     id="defs1" /><g
     inkscape:label="Camada 1"
     inkscape:groupmode="layer"
     id="layer1"
     transform="translate(-16.335234,-9.9394452)"><path
       id="rect3"
       style="fill:#000000;stroke-width:1.057;stroke-linecap:round;stroke-linejoin:round"
       d="m 21.227128,9.939445 c -0.28291,0 -0.565601,0.108782 -0.782381,0.325562 l -3.784782,3.784781 c -0.27555,0.27555 -0.375459,0.657879 -0.300757,1.011308 -0.07474,0.353453 0.02519,0.735737 0.300757,1.011308 l 3.784782,3.785299 c 0.43356,0.43356 1.131719,0.43356 1.565279,0 0.43356,-0.43356 0.43356,-1.13172 0,-1.565279 l -2.124935,-2.124419 h 7.724076 c 0.613147,0 1.106393,-0.493762 1.106393,-1.106909 0,-0.613146 -0.493246,-1.106392 -1.106393,-1.106392 h -7.724076 l 2.124935,-2.124418 c 0.43356,-0.43356 0.43356,-1.131719 0,-1.565279 -0.21678,-0.21678 -0.499988,-0.325562 -0.782898,-0.325562 z" /></g></svg>
