<?xml version="1.0" encoding="UTF-8" standalone="no"?>
<!-- Created with Inkscape (http://www.inkscape.org/) -->

<svg
   width="74.277565mm"
   height="74.329636mm"
   viewBox="0 0 74.277565 74.329636"
   version="1.1"
   id="svg1"
   xml:space="preserve"
   xmlns:inkscape="http://www.inkscape.org/namespaces/inkscape"
   xmlns:sodipodi="http://sodipodi.sourceforge.net/DTD/sodipodi-0.dtd"
   xmlns="http://www.w3.org/2000/svg"
   xmlns:svg="http://www.w3.org/2000/svg"><sodipodi:namedview
     id="namedview1"
     pagecolor="#ffffff"
     bordercolor="#666666"
     borderopacity="1.0"
     inkscape:showpageshadow="2"
     inkscape:pageopacity="0.0"
     inkscape:pagecheckerboard="0"
     inkscape:deskcolor="#d1d1d1"
     inkscape:document-units="mm" /><defs
     id="defs1" /><g
     inkscape:label="Camada 1"
     inkscape:groupmode="layer"
     id="layer1"><path
       style="fill:#000000"
       d="M 36.707309,74.304346 C 35.044752,74.052493 33.752874,73.13082 33.043798,71.69066 L 32.558481,70.704965 32.518025,56.25773 32.477569,41.810495 18.030334,41.770039 3.583099,41.729583 2.597403,41.244266 c -3.463204,-1.705143 -3.463204,-6.495317 0,-8.200461 l 0.985696,-0.485316 14.447235,-0.04046 14.447235,-0.04046 0.04046,-14.447235 0.04046,-14.4472349 0.485317,-0.9856955 c 1.705143,-3.4632048 6.495317,-3.4632048 8.20046,0 l 0.485317,0.9856955 0.04046,14.4472349 0.04046,14.447235 14.447235,0.04046 14.447235,0.04046 0.975626,0.480359 c 3.462621,1.704859 3.462621,6.505517 0,8.210376 l -0.975626,0.480359 -14.447235,0.04046 -14.447235,0.04046 -0.04046,14.447235 -0.04046,14.447235 -0.485317,0.985695 c -0.345556,0.701837 -0.690552,1.147925 -1.197995,1.549036 -0.933687,0.738037 -2.402777,1.206467 -3.338954,1.06465 z"
       id="path1" /></g></svg>
