<?xml version="1.0" encoding="UTF-8" standalone="no"?>
<!-- Created with Inkscape (http://www.inkscape.org/) -->

<svg
   width="57.05788mm"
   height="57.038445mm"
   viewBox="0 0 57.05788 57.038445"
   version="1.1"
   id="svg1"
   xml:space="preserve"
   xmlns:inkscape="http://www.inkscape.org/namespaces/inkscape"
   xmlns:sodipodi="http://sodipodi.sourceforge.net/DTD/sodipodi-0.dtd"
   xmlns="http://www.w3.org/2000/svg"
   xmlns:svg="http://www.w3.org/2000/svg"><sodipodi:namedview
     id="namedview1"
     pagecolor="#ffffff"
     bordercolor="#666666"
     borderopacity="1.0"
     inkscape:showpageshadow="2"
     inkscape:pageopacity="0.0"
     inkscape:pagecheckerboard="0"
     inkscape:deskcolor="#d1d1d1"
     inkscape:document-units="mm" /><defs
     id="defs1" /><g
     inkscape:label="Camada 1"
     inkscape:groupmode="layer"
     id="layer1"><path
       style="fill:#000000"
       d="M 23.98635,56.68 C 17.9594,55.741155 12.067103,52.621475 7.8226312,48.122111 2.1058192,42.061988 -0.73411277,33.736842 0.16305823,25.66838 c 0.173991,-1.564741 0.55978,-3.737632 0.85730797,-4.828646 0.989886,-3.629837 4.350728,-9.742 5.877737,-10.68949 0.333639,-0.2070176 0.592404,-0.2061926 0.926042,0.003 0.749275,0.469694 0.698589,1.351505 -0.139282,2.423172 -5.693209,7.281816 -6.94303597,17.775226 -3.155841,26.496102 2.547808,5.866907 7.8373688,11.123716 13.6119728,13.527689 3.216898,1.339198 5.711454,1.882508 9.328463,2.031723 6.202396,0.255872 11.853836,-1.444489 16.613696,-4.998606 1.47316,-1.099984 2.29934,-1.222599 2.8048,-0.416267 0.20915,0.333638 0.20997,0.592404 0.003,0.926042 -0.48575,0.782851 -2.77272,2.394281 -5.14154,3.622789 -5.58165,2.894737 -11.575324,3.878046 -17.763017,2.91416 z M 49.137444,45.888108 c -0.24455,-0.536718 -0.0891,-0.905329 1.1954,-2.835296 1.63437,-2.455573 2.80808,-5.067018 3.65988,-8.143032 0.82441,-2.977158 0.81599,-9.844024 -0.0158,-12.854481 -2.63525,-9.537955 -9.46587,-16.3521216 -19.05275,-19.0068638 -2.945944,-0.815774 -9.846888,-0.815774 -12.792833,0 -3.082953,0.8537132 -5.788812,2.0683522 -8.193937,3.6781942 -1.886043,1.262401 -2.25534,1.418136 -2.787681,1.175585 -1.052456,-0.479531 -0.802814,-1.467666 0.643139,-2.545681 1.808617,-1.348394 6.747051,-3.7194892 9.061266,-4.3505942 3.31672,-0.90449699 7.227618,-1.22324999 10.518614,-0.85730799 3.704872,0.411962 6.206502,1.11877299 9.458142,2.67230699 10.83308,5.1757152 17.3682,16.7869568 16.06161,28.5374088 -0.42924,3.860218 -1.13347,6.275747 -2.8346,9.722725 -1.84212,3.732654 -3.08156,5.423958 -3.97484,5.423958 -0.43931,0 -0.75983,-0.2091 -0.94565,-0.616922 z M 27.921175,37.972218 C 27.547063,37.693027 27.467029,37.02303 27.407584,33.672739 l -0.07042,-3.96875 -4.029259,-0.07301 c -3.699954,-0.06704 -4.052104,-0.115694 -4.308788,-0.595313 -0.196317,-0.366822 -0.196317,-0.677789 0,-1.044611 0.256684,-0.479619 0.608834,-0.528273 4.308788,-0.595313 l 4.029259,-0.07301 0.07301,-4.029259 c 0.06704,-3.699954 0.115694,-4.052104 0.595312,-4.308788 0.366822,-0.196317 0.67779,-0.196317 1.044612,0 0.479618,0.256684 0.528272,0.608834 0.595312,4.308788 l 0.07301,4.029259 4.029254,0.07301 c 3.69996,0.06704 4.05211,0.115694 4.30879,0.595313 0.19632,0.366822 0.19632,0.677789 0,1.044611 -0.25668,0.479619 -0.60883,0.528273 -4.30879,0.595313 l -4.029254,0.07301 -0.07042,3.96875 c -0.05945,3.350291 -0.139479,4.020288 -0.513591,4.299479 -0.243744,0.181901 -0.516722,0.330729 -0.606616,0.330729 -0.08989,0 -0.362872,-0.148828 -0.606616,-0.330729 z"
       id="path1" /></g></svg>
