<?xml version="1.0" encoding="UTF-8" standalone="no"?>
<!-- Created with Inkscape (http://www.inkscape.org/) -->

<svg
   width="12.926912mm"
   height="6.6974454mm"
   viewBox="0 0 12.926912 6.6974454"
   version="1.1"
   id="svg1"
   xml:space="preserve"
   xmlns:inkscape="http://www.inkscape.org/namespaces/inkscape"
   xmlns:sodipodi="http://sodipodi.sourceforge.net/DTD/sodipodi-0.dtd"
   xmlns="http://www.w3.org/2000/svg"
   xmlns:svg="http://www.w3.org/2000/svg"><sodipodi:namedview
     id="namedview1"
     pagecolor="#ffffff"
     bordercolor="#666666"
     borderopacity="1.0"
     inkscape:showpageshadow="2"
     inkscape:pageopacity="0.0"
     inkscape:pagecheckerboard="0"
     inkscape:deskcolor="#d1d1d1"
     inkscape:document-units="mm" /><defs
     id="defs1" /><g
     inkscape:label="Camada 1"
     inkscape:groupmode="layer"
     id="layer1"
     transform="translate(-1.1795463,-1.4082647)"><path
       style="fill:#000000;stroke-width:0.460541"
       d="m 4.8480329,8.0720058 c -0.631572,-0.07922 -1.3491,-0.292897 -1.900601,-0.565979 C 1.9150079,6.9948108 1.3403231,6.3260695 1.2035392,5.4767188 0.99920079,4.2078943 2.1170489,2.9749012 3.9081479,2.4935217 c 0.505687,-0.1359098 1.682069,-0.2842256 1.746144,-0.2201506 0.03296,0.032956 -0.126688,0.4522513 -0.172195,0.4522513 -0.256534,0 -1.125581,0.1428335 -1.461726,0.2402449 -1.054642,0.3056233 -1.77168,0.9258076 -1.773713,1.5341311 -7.83e-4,0.2387555 0.05568,0.25443 0.277588,0.077037 0.581125,-0.4645601 1.499273,-0.7881883 2.506754,-0.8835792 l 0.317929,-0.030101 0.02909,0.2168765 c 0.016,0.1192825 0.01979,0.231928 0.0084,0.2503243 -0.01137,0.018394 -0.214265,0.047795 -0.450879,0.06533 -0.790817,0.058609 -1.726083,0.4027404 -2.165091,0.796648 l -0.228896,0.205381 0.228912,0.187576 c 0.66245,0.5428285 1.655753,0.8194833 2.942277,0.8194833 h 0.700462 l 0.450225,0.4284275 c 0.247625,0.235635 0.618734,0.543554 0.824688,0.684264 0.205954,0.140711 0.374463,0.273162 0.374463,0.294337 0,0.05831 -0.752575,0.296702 -1.217472,0.385651 -0.524044,0.100267 -1.500658,0.136627 -1.997091,0.07435 z m 5.8370591,-0.01749 C 8.3242989,7.6646638 6.1843799,5.849009 5.8745509,3.9729208 c -0.156934,-0.950271 0.30859,-1.8487312 1.168531,-2.2552602 0.525583,-0.2484642 0.853377,-0.314311 1.53882,-0.3091162 1.9478451,0.014763 4.0442561,1.2108819 5.0398181,2.8754981 0.786958,1.3158226 0.602813,2.6708463 -0.458497,3.3738283 -0.563361,0.373155 -1.607929,0.540347 -2.478131,0.396645 z M 12.450098,6.315275 C 12.66353,6.269598 12.668019,6.1600653 12.472718,5.7633562 11.909204,4.6186974 10.339988,3.5295539 8.7930439,3.2094125 c -0.43737,-0.090515 -1.314719,-0.076083 -1.414062,0.023262 -0.160615,0.1606151 0.276732,0.9192343 0.863602,1.4979975 0.815513,0.8042478 1.7904621,1.3114792 3.0656731,1.5949606 0.15657,0.034808 0.96507,0.027471 1.141839,-0.010357 z M 13.256226,5.7765469 C 13.394487,5.5497822 13.393283,5.1000773 13.253463,4.7453544 12.739729,3.4420022 10.944653,2.1978926 9.2123639,1.9445985 8.7150659,1.8718838 8.3372399,1.9036536 7.9423939,2.0513841 7.6471799,2.1618378 7.5020919,2.2880122 7.3704499,2.5487696 l -0.081126,0.1606952 0.633306,-0.024008 c 0.558235,-0.021162 0.701019,-0.00767 1.204542,0.1138346 0.663229,0.1600385 1.5304531,0.55505 2.1404231,0.9749409 0.763731,0.525737 1.475031,1.3347053 1.706515,1.9408352 0.04836,0.1266386 0.108471,0.2302516 0.133572,0.2302516 0.0251,0 0.09194,-0.075948 0.148543,-0.1687745 z"
       id="path3" /></g></svg>
