<?xml version="1.0" encoding="UTF-8" standalone="no"?>
<!-- Created with Inkscape (http://www.inkscape.org/) -->

<svg
   width="10.017222mm"
   height="7.4358969mm"
   viewBox="0 0 10.017222 7.4358969"
   version="1.1"
   id="svg8"
   inkscape:version="0.92.5 (2060ec1f9f, 2020-04-08)"
   sodipodi:docname="montain-icon.svg"
   inkscape:export-filename="montain-icon.svg"
   inkscape:export-xdpi="392"
   inkscape:export-ydpi="392"
   xml:space="preserve"
   xmlns:inkscape="http://www.inkscape.org/namespaces/inkscape"
   xmlns:sodipodi="http://sodipodi.sourceforge.net/DTD/sodipodi-0.dtd"
   xmlns="http://www.w3.org/2000/svg"
   xmlns:svg="http://www.w3.org/2000/svg"
   xmlns:rdf="http://www.w3.org/1999/02/22-rdf-syntax-ns#"
   xmlns:cc="http://creativecommons.org/ns#"
   xmlns:dc="http://purl.org/dc/elements/1.1/"><defs
     id="defs2" /><sodipodi:namedview
     id="base"
     pagecolor="#ffffff"
     bordercolor="#666666"
     borderopacity="1.0"
     inkscape:pageopacity="0.0"
     inkscape:pageshadow="2"
     inkscape:zoom="5.6"
     inkscape:cx="46.785714"
     inkscape:cy="1078.9286"
     inkscape:document-units="mm"
     inkscape:current-layer="layer1"
     showgrid="false"
     inkscape:window-width="1366"
     inkscape:window-height="704"
     inkscape:window-x="0"
     inkscape:window-y="27"
     inkscape:window-maximized="1"
     inkscape:showpageshadow="2"
     inkscape:pagecheckerboard="0"
     inkscape:deskcolor="#d1d1d1" /><metadata
     id="metadata5"><rdf:RDF><cc:Work
         rdf:about=""><dc:format>image/svg+xml</dc:format><dc:type
           rdf:resource="http://purl.org/dc/dcmitype/StillImage" /><dc:title /></cc:Work></rdf:RDF></metadata><g
     inkscape:label="Camada 1"
     inkscape:groupmode="layer"
     id="layer1"
     transform="translate(-22.764859,-3.2214877)"><path
       style="fill:#000000"
       d="M 29.153693,10.61374 C 29.107023,10.5894 28.861848,10.394986 28.608853,10.181718 28.173744,9.8149316 28.120531,9.7802586 27.62508,9.5406926 27.11376,9.2934526 27.087342,9.2845746 26.514728,9.1675666 l -0.586569,-0.11986 H 24.52155 c -1.570399,0 -1.553087,0.0022 -1.686511,-0.212376 l -0.07018,-0.112857 V 6.2599957 c 0,-2.4068591 0.0014,-2.4648476 0.06195,-2.567386 0.122459,-0.2073796 0.184308,-0.2203249 1.052652,-0.220326 l 0.774847,-9e-7 0.08565,-0.1073423 c 0.156755,-0.1964591 0.193444,-0.1956251 1.335525,0.030358 1.027519,0.2033152 1.165202,0.2236907 1.165202,0.1724357 0,-0.015646 0.04695,-0.057462 0.104324,-0.092924 0.201019,-0.124237 0.315431,-0.096887 1.029818,0.2461801 0.355793,0.1708606 0.758404,0.3639916 0.894692,0.4291801 l 0.247797,0.1185245 0.107858,-0.072973 c 0.07938,-0.053703 0.150833,-0.072972 0.270607,-0.072972 h 0.16275 l 0.488594,0.410413 c 0.268726,0.2257271 0.86586,0.7271302 1.326964,1.114229 0.461104,0.3870988 0.854723,0.7397032 0.874708,0.7835653 0.03921,0.08606 0.04496,0.2765437 0.01093,0.3620237 -0.01895,0.04759 -0.427985,0.538609 -2.507748,3.0103647 -0.636926,0.7569754 -0.741591,0.8524744 -0.935996,0.8540344 -0.04259,3.42e-4 -0.115618,-0.0193 -0.162286,-0.04364 z m 0.445257,-0.492295 c 0.524795,-0.6048144 2.864388,-3.4070604 2.888934,-3.4602198 0.04167,-0.090236 0.138063,-0.00179 -1.483791,-1.3614116 C 30.731517,5.0713094 30.379421,4.7757147 30.221657,4.6429365 30.063893,4.5101584 29.908001,4.4015217 29.875231,4.4015217 c -0.05584,0 -0.207565,0.1742452 -1.844696,2.1185367 -1.039154,1.2341202 -1.316419,1.5770002 -1.316419,1.6279452 0,0.04995 0.632073,0.596811 2.321096,2.0081824 0.129059,0.107844 0.260272,0.192453 0.298458,0.192453 0.0461,0 0.131922,-0.0735 0.26528,-0.227194 z M 26.992887,8.8293956 c -0.0937,-0.08452 -0.235264,-0.205883 -0.31459,-0.269686 -0.187556,-0.150855 -0.242952,-0.247932 -0.242952,-0.42575 0,-0.178776 -0.01907,-0.151518 0.72526,-1.036522 0.325137,-0.386586 0.939623,-1.1173389 1.365523,-1.623896 0.4259,-0.5065571 0.774364,-0.9344238 0.774364,-0.9508149 0,-0.034721 -1.570825,-0.7988663 -1.692983,-0.8235697 -0.0637,-0.012882 -0.09349,4.204e-4 -0.131769,0.058847 -0.04109,0.06271 -0.743754,1.5130815 -0.994554,2.052861 -0.03958,0.08518 -0.296583,0.6218144 -0.571124,1.1925211 -0.33011,0.686222 -0.493774,1.059494 -0.483246,1.102153 0.01211,0.04906 0.218148,0.161846 0.860687,0.471126 0.464623,0.223642 0.851739,0.406574 0.860257,0.406516 0.0085,-5.8e-5 -0.06117,-0.06926 -0.154873,-0.1537855 z m -2.709696,-0.09237 c 0.0062,-0.01011 -0.0703,-0.03524 -0.170097,-0.05586 -0.142994,-0.02953 -0.201382,-0.06017 -0.275468,-0.144554 -0.05171,-0.05889 -0.102074,-0.152673 -0.111926,-0.208404 -0.0119,-0.0673 0.131634,-0.848645 0.42738,-2.3265446 0.293812,-1.4682374 0.433733,-2.2294951 0.411311,-2.2377973 -0.01869,-0.00692 -0.341991,-0.00915 -0.718445,-0.00495 -0.52573,0.00586 -0.696333,0.017487 -0.735646,0.050139 -0.04679,0.038863 -0.05118,0.2491813 -0.05118,2.4509418 0,1.8890139 0.0084,2.4153379 0.03872,2.4404569 0.0213,0.01761 0.08053,0.0387 0.131642,0.04685 0.130825,0.02087 1.039947,0.012 1.053714,-0.01028 z m 1.594611,-0.01666 c 0,-0.0097 -0.13144,-0.07902 -0.292089,-0.154096 -0.351098,-0.164069 -0.4513,-0.271842 -0.4513,-0.4854 0,-0.116004 0.07003,-0.286382 0.406206,-0.988262 0.223414,-0.4664573 0.469247,-0.9805155 0.546297,-1.1423576 0.07705,-0.1618421 0.326353,-0.6824734 0.554006,-1.1569584 0.227652,-0.4744851 0.413914,-0.8724315 0.413914,-0.8843254 0,-0.023268 -1.892274,-0.405707 -2.0074,-0.405707 -0.04235,0 -0.08074,0.027055 -0.09888,0.069693 -0.03703,0.087021 -0.929227,4.5861606 -0.929227,4.6858736 0,0.04005 0.01742,0.08389 0.03872,0.09744 0.02129,0.01355 0.428997,0.10356 0.906006,0.200031 0.996946,0.201624 0.913749,0.186686 0.913749,0.164065 z"
       id="path1" /></g></svg>
