<?xml version="1.0" encoding="UTF-8" standalone="no"?>
<!-- Created with Inkscape (http://www.inkscape.org/) -->

<svg
   width="15.474552mm"
   height="10.988933mm"
   viewBox="0 0 15.474552 10.988933"
   version="1.1"
   id="svg1"
   xml:space="preserve"
   xmlns:inkscape="http://www.inkscape.org/namespaces/inkscape"
   xmlns:sodipodi="http://sodipodi.sourceforge.net/DTD/sodipodi-0.dtd"
   xmlns="http://www.w3.org/2000/svg"
   xmlns:svg="http://www.w3.org/2000/svg"><sodipodi:namedview
     id="namedview1"
     pagecolor="#ffffff"
     bordercolor="#666666"
     borderopacity="1.0"
     inkscape:showpageshadow="2"
     inkscape:pageopacity="0.0"
     inkscape:pagecheckerboard="0"
     inkscape:deskcolor="#d1d1d1"
     inkscape:document-units="mm" /><defs
     id="defs1" /><g
     inkscape:label="Camada 1"
     inkscape:groupmode="layer"
     id="layer1"
     transform="translate(-1.8262852,-0.82467554)"><path
       id="path3"
       style="fill:#000000"
       d="m 14.30352,0.82475586 c -0.07951,0.00435 -0.161435,0.18525954 -0.345199,0.54777014 -0.42113,0.8307642 -0.669829,1.6090643 -0.733288,2.2944336 -0.04081,0.4406794 0.04089,1.3407655 0.166914,1.839681 0.120835,0.4783795 0.405368,1.0047806 0.621668,1.1503174 C 14.265016,6.8261158 14.4171,6.8150445 14.651302,6.609416 15.069535,6.2422024 15.324979,5.4434019 15.373739,4.353223 15.422839,3.255439 15.246464,2.5335478 14.635282,1.335319 14.460373,0.99240831 14.383034,0.82041076 14.30352,0.82475586 Z M 5.0007284,1.6996379 c -0.02273,0.025587 -0.4077271,0.9736731 -0.4077271,1.004073 0,0.01674 0.043368,0.018848 0.096118,0.00413 0.05275,-0.01471 0.1457358,-0.041074 0.2067057,-0.058394 0.06098,-0.01732 0.1948463,-0.00727 0.2976562,0.022221 0.1028099,0.02947 0.1960325,0.044263 0.2072225,0.033073 C 5.4118939,2.6935585 5.3290247,2.459936 5.2167358,2.1853963 5.104452,1.9108566 5.0073283,1.6922379 5.0007284,1.6996379 Z M 16.476514,2.1791951 c -0.122688,0 -0.636383,1.1653276 -0.760677,1.7259929 -0.204501,0.9224461 0.105003,2.5113768 0.537951,2.7636556 0.568222,0.3311057 1.114527,-0.832423 1.040247,-2.2153687 C 17.274895,4.0970733 17.218734,3.8157848 17.09198,3.4395833 16.918151,2.9236598 16.554654,2.1791951 16.476514,2.1791951 Z M 2.6339478,2.80448 c -0.01105,0.011045 0.045919,0.1767981 0.1266072,0.3684529 0.0807,0.1916549 0.1705378,0.4103986 0.1999878,0.4857585 L 3.0142863,3.795634 3.1047201,3.6597249 C 3.2192449,3.4881411 3.3276647,3.3799973 3.4917765,3.2726685 3.6191654,3.1893555 3.6133137,3.1848998 3.1372762,2.986381 2.8712655,2.8754491 2.6449877,2.79343 2.6339478,2.80448 Z m 4.7402791,0 c -0.01909,-0.019092 -0.9169885,0.3418297 -0.9616984,0.3865397 -0.01021,0.010211 0.05888,0.064199 0.153479,0.1198893 0.09459,0.055685 0.2227172,0.183015 0.2847371,0.2831869 0.06202,0.1001689 0.1304355,0.1617525 0.1524455,0.1369425 C 7.06462,3.6617995 7.3982969,2.82855 7.3742269,2.80448 Z m -2.370398,0.2237589 c -0.4784505,0 -0.587248,0.018873 -0.8578287,0.1457276 C 3.7874325,3.3420693 3.4425323,3.6742481 3.2814535,4.0069906 3.1514336,4.2755783 3.0838492,4.6839447 3.1352091,4.8885905 l 0.03514,0.1415934 1.848466,-0.014469 1.848466,-0.014469 -0.00362,-0.359668 C 6.8569337,4.0096128 6.4859571,3.4661424 5.8616577,3.1734497 5.59153,3.0468018 5.4821035,3.0282389 5.0038289,3.0282389 Z m 2.1998658,1.1782227 c -0.004,0 -0.00775,0.1854614 -0.00775,0.4118612 -1e-5,0.3429406 0.013676,0.4063052 0.082165,0.3808553 0.04521,-0.0168 0.2735368,-0.1079995 0.5074626,-0.2030884 L 8.2113851,4.6229736 7.7111572,4.4147176 C 7.4361155,4.3002147 7.2076947,4.2064616 7.2036947,4.2064616 Z M 2.7021606,4.2266156 C 2.2464031,4.4043874 1.8024687,4.61315 1.8272786,4.63796 c 0.0174,0.0174 0.2213386,0.1101391 0.4532024,0.206189 0.2318627,0.09605 0.4339982,0.177134 0.4490682,0.1798339 0.01507,0.0027 0.027388,-0.1802947 0.027388,-0.4066935 0,-0.2521387 -0.021208,-0.4037638 -0.054777,-0.3906738 z m 3.0091187,1.21698 c -1.031794,0.0032 -2.0994345,0.09838 -2.6752889,0.2651001 l -0.2201416,0.063562 0.015503,0.2723348 c 0.01662,0.2928357 0.1901959,1.0365445 0.3074748,1.3172322 l 0.07183,0.1720826 0.4857585,-0.1581299 c 1.122261,-0.3654299 2.7770632,-0.5810839 3.938261,-0.513664 0.8138552,0.04725 1.2930734,0.1112671 2.5207759,0.3379639 0.866126,0.1599329 1.216436,0.1974922 2.082561,0.2232422 1.10638,0.0329 1.839113,-0.020991 2.792594,-0.2051554 0.550997,-0.1064249 1.801978,-0.4356115 1.771468,-0.4661215 -0.0091,-0.0091 -0.238038,0.018812 -0.509013,0.062012 -0.729961,0.1163598 -2.345331,0.1591642 -3.132108,0.082682 C 12.087578,6.7924018 11.069576,6.5508979 9.7994019,6.0993693 9.2211854,5.8938215 8.1888873,5.6520087 7.415568,5.5412638 6.9367995,5.4727039 6.3303557,5.4416754 5.7112793,5.4435956 Z m 11.0866617,1.632975 c -0.0072,-0.0072 -0.218456,0.05957 -0.469222,0.1483114 -0.558447,0.1976188 -1.34281,0.4004577 -2.035535,0.5270996 C 13.528076,7.8918575 11.829213,7.8783651 10.539408,7.7220093 9.2454715,7.5651484 8.0508079,7.5187662 7.3881795,7.5995361 6.2412287,7.739338 4.2618534,8.2285115 3.9651326,8.4454793 c -0.07814,0.05714 -0.05361,0.1067937 0.206189,0.4201294 0.1621349,0.1955468 0.4210239,0.4728082 0.5751587,0.6159831 0.1541339,0.1431739 0.3030592,0.2604492 0.3307292,0.2604492 0.02767,0 0.231942,-0.08256 0.4542358,-0.1834513 C 5.7537391,9.4576988 6.1331512,9.3120651 6.3742879,9.2350952 7.9047014,8.7465787 8.2306438,8.69678 10.237618,8.6434001 12.268652,8.5893801 12.850464,8.5224676 14.055473,8.2051839 14.922721,7.9768341 15.376079,7.8069336 16.141134,7.424353 16.509446,7.2401712 16.805141,7.0837706 16.797941,7.0765706 Z m 0.07906,0.4268474 c -0.0028,-0.01886 -0.143554,0.0548 -0.422713,0.219108 -0.845639,0.4977155 -1.96259,0.9234451 -3.010669,1.1472168 -0.271278,0.05792 -0.887669,0.129957 -1.369942,0.160197 C 9.9244936,9.1646916 9.1340976,9.298333 8.0082967,9.7187866 7.2523495,10.001111 6.0177205,10.631 6.0177205,10.734229 c 0,0.04648 0.6532739,0.287503 1.2381674,0.456819 0.4735715,0.137092 0.491517,0.135008 0.8294067,-0.09302 C 8.4237023,10.86966 9.3835882,10.431787 9.9115397,10.265007 10.163752,10.185337 10.965429,10.00039 11.692826,9.8541789 13.20713,9.5497972 13.78549,9.3681994 14.690059,8.9136678 15.46684,8.5233472 15.943775,8.2359804 16.471346,7.8393148 16.744503,7.633933 16.87976,7.5222799 16.877006,7.503418 Z M 17.060969,7.8000407 16.73179,8.080127 c -0.445567,0.3794706 -1.19231,0.8569161 -1.74563,1.1162109 -0.251232,0.1177319 -0.873828,0.3265925 -1.383378,0.4640544 -1.59529,0.4303627 -2.193352,0.6450807 -2.789494,1.0014897 -0.386188,0.230887 -1.0049281,0.683015 -1.3151647,0.961181 -0.2628638,0.23569 -0.294171,0.232295 0.7978837,0.100769 l 0.798401,-0.09663 0.423747,-0.309025 c 0.458922,-0.335147 1.146379,-0.693161 1.925464,-1.002523 1.490746,-0.5919494 2.511577,-1.2701775 3.375504,-2.2432735 z" /></g></svg>
