<?xml version="1.0" encoding="UTF-8" standalone="no"?>
<!-- Created with Inkscape (http://www.inkscape.org/) -->

<svg
   width="15.575385mm"
   height="15.367253mm"
   viewBox="0 0 15.575385 15.367253"
   version="1.1"
   id="svg1"
   xml:space="preserve"
   xmlns:inkscape="http://www.inkscape.org/namespaces/inkscape"
   xmlns:sodipodi="http://sodipodi.sourceforge.net/DTD/sodipodi-0.dtd"
   xmlns="http://www.w3.org/2000/svg"
   xmlns:svg="http://www.w3.org/2000/svg"><sodipodi:namedview
     id="namedview1"
     pagecolor="#ffffff"
     bordercolor="#666666"
     borderopacity="1.0"
     inkscape:showpageshadow="2"
     inkscape:pageopacity="0.0"
     inkscape:pagecheckerboard="0"
     inkscape:deskcolor="#d1d1d1"
     inkscape:document-units="mm" /><defs
     id="defs1" /><g
     inkscape:label="Camada 1"
     inkscape:groupmode="layer"
     id="layer1"
     transform="translate(-28.566458,-2.7126271)"><path
       style="fill:#000000;stroke-width:0.515107"
       d="M 28.566458,10.396253 V 2.7126272 h 7.787693 7.787693 v 7.6836258 7.683626 h -7.787693 -7.787693 z m 3.712719,2.063999 c 0.77092,-1.335528 1.410616,-2.428234 1.421548,-2.428234 0.01093,0 0.353432,0.578389 0.761113,1.285308 0.503049,0.872288 0.750623,1.270792 0.770443,1.240134 0.01606,-0.02484 0.797548,-1.375372 1.736634,-3.0011677 l 1.707428,-2.9559928 0.05779,0.094146 c 0.03178,0.05178 1.060889,1.8346695 2.286897,3.9619755 1.22601,2.127307 2.242421,3.88266 2.258693,3.900785 0.01633,0.01819 0.02958,-2.417065 0.02958,-5.4375097 V 3.6492318 h -6.920465 -6.920466 v 5.6196275 5.6196267 h 0.704565 0.704566 z M 31.952725,7.4980306 C 31.733228,7.4429007 31.420828,7.2580128 31.269167,7.0934794 31.19126,7.0089607 31.07812,6.8355396 31.017743,6.7080995 30.917152,6.4957729 30.907969,6.4472215 30.907969,6.1277001 c 0,-0.3327581 0.0059,-0.3606661 0.129554,-0.6108242 0.156036,-0.3157168 0.356907,-0.5123769 0.679409,-0.6651643 0.212078,-0.1004742 0.261098,-0.1097745 0.5786,-0.1097745 0.317501,0 0.366521,0.0093 0.578599,0.1097745 0.322502,0.1527874 0.523373,0.3494475 0.679409,0.6651643 0.123768,0.2504281 0.129554,0.2777874 0.129554,0.6126235 0,0.334836 -0.0058,0.3621959 -0.129554,0.6126235 -0.238123,0.4818089 -0.653282,0.7550727 -1.181361,0.7775895 -0.15663,0.00668 -0.345384,-0.00309 -0.419454,-0.021682 z"
       id="path4" /></g></svg>
