<?xml version="1.0" encoding="UTF-8" standalone="no"?>
<!-- Created with Inkscape (http://www.inkscape.org/) -->

<svg
   width="42.488686mm"
   height="45.172169mm"
   viewBox="0 0 42.488686 45.172169"
   version="1.1"
   id="svg1"
   xml:space="preserve"
   xmlns:inkscape="http://www.inkscape.org/namespaces/inkscape"
   xmlns:sodipodi="http://sodipodi.sourceforge.net/DTD/sodipodi-0.dtd"
   xmlns="http://www.w3.org/2000/svg"
   xmlns:svg="http://www.w3.org/2000/svg"><sodipodi:namedview
     id="namedview1"
     pagecolor="#ffffff"
     bordercolor="#666666"
     borderopacity="1.0"
     inkscape:showpageshadow="2"
     inkscape:pageopacity="0.0"
     inkscape:pagecheckerboard="0"
     inkscape:deskcolor="#d1d1d1"
     inkscape:document-units="mm" /><defs
     id="defs1" /><g
     inkscape:label="Camada 1"
     inkscape:groupmode="layer"
     id="layer1"
     transform="translate(-61.278955,-1.5964477)"><path
       style="fill:#000000"
       d="m 81.469403,46.653049 c -0.95817,-0.320597 -18.64552,-9.265121 -19.10206,-9.659945 -0.25559,-0.221044 -0.60504,-0.687661 -0.77655,-1.036927 l -0.31184,-0.635028 V 24.172029 13.022908 l 0.31184,-0.635028 c 0.17151,-0.349265 0.52096,-0.816104 0.77655,-1.037418 0.29756,-0.257648 3.82783,-2.0843063 9.81432,-5.0782023 l 9.3496,-4.6758121 h 0.99204 0.99203 l 9.3496,4.6758121 c 5.9865,2.993896 9.516757,4.8205543 9.814317,5.0782023 0.25559,0.221314 0.60505,0.688153 0.77656,1.037418 l 0.31183,0.635028 v 11.149121 11.14912 l -0.31183,0.635028 c -0.17151,0.349266 -0.52097,0.816104 -0.77656,1.037419 -0.29751,0.257605 -3.819877,2.080336 -9.789367,5.065734 l -9.32465,4.663343 -0.82604,0.03943 c -0.50031,0.02388 -1.00103,-0.01912 -1.26979,-0.109049 z m -0.72109,-13.74513 v -9.457701 l -7.93217,-3.965619 c -4.36269,-2.18109 -7.95703,-3.965619 -7.98742,-3.965619 -0.0304,0 -0.0553,4.255966 -0.0553,9.457701 v 9.457701 l 7.90422,3.959409 c 4.34733,2.177676 7.94167,3.962204 7.98743,3.965619 0.0458,0.0034 0.0832,-4.249756 0.0832,-9.451491 z m 9.48486,-16.30693 c 4.17965,-2.08956 7.59937,-3.824619 7.59937,-3.855688 0,-0.03107 -3.44458,-1.778198 -7.65462,-3.8825113 l -7.65462,-3.826024 -7.65462,3.826024 c -4.21005,2.1043133 -7.65462,3.8514433 -7.65462,3.8825123 0,0.07817 15.10975,7.640979 15.28129,7.648674 0.0762,0.0034 3.55817,-1.703428 7.73782,-3.792987 z"
       id="path1" /></g></svg>
