<?xml version="1.0" encoding="UTF-8" standalone="no"?>
<!-- Created with Inkscape (http://www.inkscape.org/) -->

<svg
   width="17.128138mm"
   height="17.125479mm"
   viewBox="0 0 17.128138 17.125479"
   version="1.1"
   id="svg1"
   xml:space="preserve"
   xmlns:inkscape="http://www.inkscape.org/namespaces/inkscape"
   xmlns:sodipodi="http://sodipodi.sourceforge.net/DTD/sodipodi-0.dtd"
   xmlns="http://www.w3.org/2000/svg"
   xmlns:svg="http://www.w3.org/2000/svg"><sodipodi:namedview
     id="namedview1"
     pagecolor="#ffffff"
     bordercolor="#666666"
     borderopacity="1.0"
     inkscape:showpageshadow="2"
     inkscape:pageopacity="0.0"
     inkscape:pagecheckerboard="0"
     inkscape:deskcolor="#d1d1d1"
     inkscape:document-units="mm" /><defs
     id="defs1" /><g
     inkscape:label="Camada 1"
     inkscape:groupmode="layer"
     id="layer1"
     transform="translate(-0.99531766,-1.3271645)"><path
       style="fill:#000000"
       d="m 2.5172867,18.416392 c -0.305503,-0.05742 -0.703996,-0.278099 -0.954475,-0.528578 -0.259978,-0.259978 -0.471719,-0.652489 -0.531742,-0.985705 -0.02274,-0.126228 -0.03575,-0.920762 -0.03575,-2.182604 v -1.984124 h 0.953321 0.953321 v 1.906642 1.906643 h 6.656525 6.6565243 V 9.8921417 3.2356175 H 9.5584847 2.9019597 V 5.14226 7.0489026 H 1.9486387 0.9953177 V 5.0647788 c 0,-1.2618421 0.01301,-2.0563767 0.03575,-2.182604 0.130544,-0.7247182 0.792729,-1.386903 1.517447,-1.5174474 0.278043,-0.050084 13.7418913,-0.050084 14.0199333,0 0.724719,0.1305444 1.386903,0.7927292 1.517448,1.5174474 0.05008,0.2780422 0.05008,13.7418912 0,14.0199342 -0.130545,0.724718 -0.792729,1.386903 -1.517448,1.517447 -0.256049,0.04612 -13.8051593,0.04307 -14.0511643,-0.0032 z m 5.895435,-4.4351 -0.660396,-0.661016 1.220853,-1.22051 c 0.671469,-0.67128 1.2208533,-1.231876 1.2208533,-1.245769 0,-0.01389 -2.0697103,-0.02526 -4.5993573,-0.02526 H 0.9953177 V 9.8921417 8.9555452 h 4.599357 c 2.529647,0 4.5993573,-0.011214 4.5993573,-0.02492 0,-0.013706 -0.5494473,-0.5745177 -1.2209933,-1.2462481 l -1.220994,-1.221328 0.660906,-0.6602856 0.660905,-0.6602856 2.3746853,2.3748614 2.374684,2.3748616 -2.375053,2.3750531 -2.3750543,2.375054 z"
       id="path1" /></g></svg>
