<?xml version="1.0" encoding="UTF-8" standalone="no"?>
<!-- Created with Inkscape (http://www.inkscape.org/) -->

<svg
   width="13.745112mm"
   height="8.5218878mm"
   viewBox="0 0 13.745112 8.5218878"
   version="1.1"
   id="svg8"
   inkscape:version="0.92.5 (2060ec1f9f, 2020-04-08)"
   sodipodi:docname="montain-icon.svg"
   inkscape:export-filename="montain-icon.svg"
   inkscape:export-xdpi="392"
   inkscape:export-ydpi="392"
   xmlns:inkscape="http://www.inkscape.org/namespaces/inkscape"
   xmlns:sodipodi="http://sodipodi.sourceforge.net/DTD/sodipodi-0.dtd"
   xmlns="http://www.w3.org/2000/svg"
   xmlns:svg="http://www.w3.org/2000/svg"
   xmlns:rdf="http://www.w3.org/1999/02/22-rdf-syntax-ns#"
   xmlns:cc="http://creativecommons.org/ns#"
   xmlns:dc="http://purl.org/dc/elements/1.1/">
  <defs
     id="defs2" />
  <sodipodi:namedview
     id="base"
     pagecolor="#ffffff"
     bordercolor="#666666"
     borderopacity="1.0"
     inkscape:pageopacity="0.0"
     inkscape:pageshadow="2"
     inkscape:zoom="5.6"
     inkscape:cx="46.785714"
     inkscape:cy="1078.9286"
     inkscape:document-units="mm"
     inkscape:current-layer="layer1"
     showgrid="false"
     inkscape:window-width="1366"
     inkscape:window-height="704"
     inkscape:window-x="0"
     inkscape:window-y="27"
     inkscape:window-maximized="1"
     inkscape:showpageshadow="2"
     inkscape:pagecheckerboard="0"
     inkscape:deskcolor="#d1d1d1" />
  <metadata
     id="metadata5">
    <rdf:RDF>
      <cc:Work
         rdf:about="">
        <dc:format>image/svg+xml</dc:format>
        <dc:type
           rdf:resource="http://purl.org/dc/dcmitype/StillImage" />
        <dc:title />
      </cc:Work>
    </rdf:RDF>
  </metadata>
  <g
     inkscape:label="Camada 1"
     inkscape:groupmode="layer"
     id="layer1"
     transform="translate(-2.1516264,-2.2643487)">
    <path
       style="fill:#000000;stroke-width:0.0159402"
       d="m 13.628685,10.753837 -0.03763,-0.03282 0.04383,0.02668 c 0.0241,0.01464 0.04383,0.02945 0.04383,0.03282 0,0.01237 -0.01325,0.0052 -0.05004,-0.02668 z m -0.40798,-0.284806 c -0.281651,-0.188943 -0.325648,-0.224132 -0.347174,-0.277647 -0.07078,-0.176012 -0.228741,-0.3555239 -0.371252,-0.4219309 -0.121617,-0.05668 -0.331152,-0.05936 -0.465401,-0.0059 -0.104616,0.0416 -0.09564,0.04077 -0.09564,0.0089 0,-0.03662 -0.196051,-0.615972 -0.265102,-0.783412 -0.09172,-0.222411 -0.06808,-0.216191 -0.229664,-0.06042 -0.07795,0.07515 -0.147726,0.136641 -0.155039,0.136641 -0.0073,0 -0.09461,-0.116005 -0.193983,-0.257776 l -0.180681,-0.257772 -0.0028,-0.128781 c -0.006,-0.2723148 -0.09421,-0.2708168 -0.292304,0.0051 -0.07021,0.09774 -0.0722,0.103544 -0.04927,0.143455 0.05195,0.09042 0.563582,0.776218 0.594606,0.797019 0.0182,0.0122 0.08018,0.07029 0.137775,0.129094 0.153541,0.156772 0.258592,0.3861 0.306761,0.6696719 0.0081,0.04765 0.0067,0.05142 -0.0097,0.02571 -0.129991,-0.2038959 -0.278742,-0.3930389 -0.5562,-0.7074409 -0.152624,-0.172943 -0.20316,-0.242736 -0.251463,-0.347286 -0.145467,-0.314864 -0.328788,-0.50011 -0.495927,-0.501138 -0.056,-3.42e-4 -0.05865,-0.00334 -0.15631,-0.180192 C 10.087345,8.3560111 10.026296,8.2286891 10.006316,8.171986 9.8964722,7.8602634 9.7247968,7.6562437 9.4716697,7.5366103 9.415285,7.5099613 9.3397733,7.4837546 9.3038743,7.4783678 l -0.065271,-0.00983 -0.054576,-0.150157 c -0.030011,-0.082581 -0.058764,-0.150157 -0.063885,-0.150157 -0.00511,0 -0.021104,0.019729 -0.035506,0.043831 C 9.0702403,7.2361678 9.0006003,7.3342196 8.9298991,7.4299563 8.7999751,7.605894 8.7284498,7.7527319 8.745898,7.807705 8.758604,7.847704 8.8354,7.846759 8.926371,7.805435 9.008166,7.768317 9.0886688,7.765063 9.148585,7.796495 c 0.1736683,0.090987 0.314654,0.4346831 0.3765336,0.9179231 0.010858,0.08483 0.026138,0.100076 -0.1862561,-0.185961 l -0.1556313,-0.20959 -0.1231076,0.04741 -0.1231077,0.04741 -0.1255267,-0.06689 -0.1255268,-0.06689 -0.061457,0.06982 c -0.033805,0.0384 -0.1028816,0.117679 -0.1535137,0.176205 -0.050634,0.05852 -0.094112,0.104345 -0.09662,0.101836 -0.00246,-0.0024 0.00286,-0.02397 0.011834,-0.04765 0.026748,-0.07036 0.020869,-0.195294 -0.00973,-0.207041 -0.035457,-0.0136 -0.1443445,0.0419 -0.2158304,0.11001 -0.035033,0.03338 -0.06823,0.0522 -0.082443,0.04674 -0.09075,-0.03482 -0.2186683,0.18627 -0.3838774,0.663511 l -0.074433,0.215026 -0.162568,0.12282 c -0.089413,0.06755 -0.2325069,0.17725 -0.3179863,0.243784 -0.085481,0.06653 -0.155417,0.116964 -0.155417,0.112066 0,-0.0049 0.024437,-0.04298 0.05432,-0.08465 0.1362663,-0.190037 0.2250341,-0.436346 0.1903629,-0.528201 -0.016522,-0.04375 -0.012496,-0.04927 0.1181091,-0.162993 0.149296,-0.129984 0.2266109,-0.243746 0.2268497,-0.333807 1.877e-4,-0.07141 -0.023227,-0.09485 -0.094692,-0.09483 -0.05085,1.2e-5 -0.060946,0.0077 -0.099525,0.07573 -0.023612,0.04164 -0.1133162,0.168954 -0.1993348,0.282924 l -0.1563982,0.207222 -0.1155732,0.01028 c -0.1139472,0.01011 -0.1165841,0.0115 -0.1874238,0.09024 -0.09484,0.105496 -0.2223094,0.188354 -0.3348113,0.217657 -0.1173108,0.03057 -0.1945681,0.07672 -0.3423527,0.204601 -0.1466939,0.126933 -0.2468124,0.224049 -0.4582813,0.4445409 -0.089866,0.0937 -0.1633871,0.167734 -0.1633871,0.164527 0,-0.0033 0.078492,-0.115744 0.1744364,-0.250061 0.1994596,-0.2792569 0.2389142,-0.3350569 0.4896852,-0.6925629 0.1004067,-0.143142 0.1878002,-0.2635 0.1942054,-0.26746 0.0064,-0.004 0.0486,0.02098 0.093768,0.05542 0.045168,0.03444 0.085305,0.06262 0.089207,0.06262 0.00394,0 0.02368,-0.08608 0.04395,-0.191283 0.02027,-0.1052 0.042918,-0.191282 0.050339,-0.191282 0.02658,0 0.1723472,0.14919 0.1815337,0.185792 0.00511,0.02055 0.013978,0.03707 0.019611,0.03669 0.012165,-8.19e-4 0.2464223,-0.289266 0.3813345,-0.469557 0.2077522,-0.27763 0.380318,-0.5928879 0.3893399,-0.7112769 0.00186,-0.025233 0.0064,-0.045886 0.010022,-0.045886 0.00354,0 0.067541,0.064828 0.1421328,0.1440604 L 7.8169588,8.189549 8.0235472,7.7784898 c 0.1136229,-0.226082 0.2088384,-0.4133536 0.2115907,-0.4161581 0.00275,-0.00286 0.071601,0.045463 0.1529979,0.1072615 0.081402,0.0618 0.1493918,0.1107193 0.1510981,0.1087115 C 8.5480839,7.5678997 8.7625568,7.1997491 8.8537993,7.0383639 8.9935078,6.7912536 9.1688681,6.44184 9.1915793,6.3653207 l 0.018293,-0.061633 0.086542,0.1083978 c 0.2466679,0.3089722 0.4415694,0.6250731 0.4489919,0.728201 l 0.00314,0.043832 h 0.1934783 0.1934885 l 0.01081,0.1474468 c 0.02643,0.360961 0.123219,0.7292657 0.191636,0.7292657 0.03175,0 0.188292,-0.1744315 0.258218,-0.2877226 0.03303,-0.053524 0.08241,-0.1463453 0.10973,-0.206268 l 0.04966,-0.1089486 0.03897,0.082237 c 0.02209,0.046624 0.09177,0.1368031 0.1609,0.2082259 0.11321,0.1169745 0.123252,0.1329479 0.140308,0.2232186 0.0411,0.2175143 0.14744,0.4642868 0.241013,0.5592758 0.02435,0.02473 0.03725,0.0279 0.05886,0.01446 0.04515,-0.02801 0.190768,-0.215624 0.230201,-0.296587 0.0201,-0.04131 0.04017,-0.075041 0.04454,-0.074963 0.0093,1.591e-4 0.231131,0.2619344 0.388916,0.4590324 0.118591,0.148144 0.289874,0.399569 0.316184,0.464133 0.0089,0.02193 0.0209,0.06076 0.02658,0.08631 l 0.01028,0.04645 0.09526,-0.11313 c 0.05239,-0.06222 0.09892,-0.113618 0.103404,-0.11421 0.0045,-5.8e-4 0.0895,0.162122 0.188925,0.361575 0.288457,0.578596 0.551139,1.0471625 0.689601,1.2301015 0.03508,0.04636 0.06154,0.08587 0.0588,0.08779 -0.0028,0.0019 -0.150131,-0.09385 -0.327517,-0.21286 z m 2.588501,-0.8075719 c -0.08704,-0.05914 -0.06084,-0.06543 0.03071,-0.0073 0.04218,0.02675 0.06619,0.04864 0.05337,0.04864 -0.0129,0 -0.05065,-0.01856 -0.08406,-0.04127 z m -0.660119,-0.467186 -0.546082,-0.364051 -0.08632,-0.173468 c -0.100219,-0.20137 -0.14834,-0.275197 -0.250615,-0.384453 -0.170871,-0.1825538 -0.331851,-0.2747971 -0.55692,-0.319138 -0.110533,-0.021774 -0.153059,-0.022845 -0.278418,-0.00697 -0.08137,0.010283 -0.19695,0.037177 -0.256832,0.059786 -0.16179,0.061074 -0.164666,0.061663 -0.164666,0.03409 0,-0.034896 -0.224363,-0.7186208 -0.338274,-1.0308584 -0.08476,-0.2323379 -0.228512,-0.5873576 -0.244664,-0.6042652 -0.0035,-0.00335 -0.116355,0.098828 -0.251365,0.2271487 -0.135011,0.1283205 -0.248751,0.23331 -0.252755,0.23331 -0.004,0 -0.146344,-0.1972931 -0.316311,-0.4384286 L 11.296832,5.9885464 11.295849,5.78538 c -6.84e-4,-0.1689016 -0.0063,-0.2139204 -0.03245,-0.2669276 -0.05527,-0.1118713 -0.146175,-0.09306 -0.287394,0.059472 -0.0923,0.099696 -0.278104,0.3643089 -0.278104,0.3960636 0,0.018471 0.02852,0.059923 0.223957,0.3255366 0.05805,0.078905 0.233665,0.3192032 0.39024,0.5339986 0.352793,0.4839768 0.332489,0.459453 0.472726,0.5709906 0.260937,0.2075379 0.461792,0.5120945 0.575857,0.8731733 0.03653,0.115657 0.107135,0.440951 0.106228,0.489399 -1.98e-4,0.01046 -0.02431,-0.02536 -0.05363,-0.0797 -0.06635,-0.123117 -0.193644,-0.300728 -0.40194,-0.5608567 C 11.835632,7.9071032 11.413768,7.419502 11.278801,7.2798428 11.227695,7.2269577 11.181238,7.1592883 11.161733,7.1092962 11.04946,6.821596 10.834853,6.4762815 10.675942,6.3276279 10.538526,6.1990816 10.419802,6.1417337 10.284854,6.1387198 L 10.181447,6.1363606 10.018138,5.8433198 C 9.9171229,5.6620594 9.8357408,5.4932497 9.8047881,5.4007752 9.6042483,4.8016346 9.2469077,4.4164331 8.7309777,4.2432411 c -0.065399,-0.02195 -0.1393721,-0.03991 -0.164398,-0.03991 -0.04398,0 -0.048314,-0.00756 -0.1301471,-0.2285553 -0.086455,-0.233424 -0.1065957,-0.2783597 -0.118848,-0.2651296 -0.067414,0.072802 -0.5104509,0.707227 -0.5506878,0.7885796 -0.060237,0.1217953 -0.082178,0.2479361 -0.049886,0.286842 0.035928,0.043302 0.1560497,0.029883 0.2847561,-0.0318 0.142525,-0.068308 0.2287784,-0.072456 0.348352,-0.016784 C 8.6268892,4.8653429 8.8414957,5.3264768 8.958824,6.0444322 9.007816,6.3442604 9.012928,6.3998066 8.988747,6.3701506 8.9775579,6.3564165 8.8476758,6.18247 8.7001338,5.9835991 8.5525928,5.7847235 8.423477,5.6220249 8.4132096,5.6220417 c -0.010266,1.57e-5 -0.1004416,0.032292 -0.2003876,0.07173 -0.099945,0.039438 -0.1882003,0.0717 -0.1961213,0.0717 -0.00796,0 -0.09918,-0.046623 -0.2027959,-0.1036119 C 7.7102877,5.6048744 7.6184313,5.5582474 7.6097779,5.5582474 c -0.00864,0 -0.1297201,0.1282665 -0.269035,0.2850361 C 7.2014265,6.000053 7.085224,6.1263539 7.082514,6.1239514 7.079864,6.1216014 7.089884,6.0775634 7.104887,6.0262134 7.119893,5.9748614 7.132815,5.8909162 7.13359,5.8396704 7.13477,5.7602254 7.12946,5.7420404 7.097631,5.7162403 7.0335498,5.6643476 6.9270639,5.7113249 6.7376017,5.8751809 6.6407957,5.9588822 6.6220459,5.9688898 6.5759731,5.9614094 6.5021399,5.9494184 6.4448866,5.9956864 6.3499187,6.1440362 6.2227676,6.342657 6.0947539,6.6433661 5.9389765,7.109358 L 5.8387543,7.4091627 5.5385662,7.6409307 C 5.3734624,7.7684042 5.1855675,7.913242 5.1210231,7.9627947 5.0564794,8.012348 4.950675,8.0942856 4.8859043,8.144878 c -0.06477,0.050596 -0.117764,0.089678 -0.117764,0.086847 0,-0.0028 0.046191,-0.0752 0.1026516,-0.1608321 C 5.1238513,7.6870685 5.2438111,7.3390673 5.1776122,7.1808178 L 5.1528809,7.1217014 5.3311197,6.964003 C 5.5941791,6.7312611 5.6353499,6.6857112 5.697601,6.558541 5.751037,6.4493745 5.764435,6.3952654 5.758842,6.311186 5.755302,6.257593 5.669537,6.211924 5.5723422,6.211853 5.4951082,6.2117892 5.4910582,6.214013 5.4720679,6.266518 5.4399729,6.355293 5.2462316,6.6294272 4.911447,7.0598032 4.833457,7.160067 4.838105,7.1583552 4.5928001,7.1769572 l -0.1354908,0.010265 -0.094219,0.10536 C 4.1613935,7.5181181 3.969039,7.6445569 3.7619306,7.6877398 3.6297177,7.7153031 3.5857198,7.7357887 3.4457276,7.8349257 3.1814,8.0221156 2.7067361,8.4765321 2.2356139,8.9934191 c -0.120469,0.132162 -0.1143689,0.11679 0.037963,-0.0957 0.1773658,-0.24742 0.6170527,-0.8713259 1.1626762,-1.6498143 0.076812,-0.1095899 0.1486128,-0.2086958 0.1595668,-0.2202371 0.016296,-0.017167 0.046977,-0.00186 0.1687185,0.084341 0.1067892,0.075583 0.1519121,0.099513 0.1598073,0.084744 0.0061,-0.011311 0.034277,-0.1496951 0.062724,-0.3075037 0.028449,-0.1578064 0.05665,-0.2961283 0.062656,-0.3073797 0.024634,-0.046083 0.3358473,0.2629395 0.3358473,0.3334754 0,0.0584 0.030129,0.032665 0.1944592,-0.1660764 C 5.2328629,5.959701 5.6347104,5.3156887 5.683534,4.9807653 l 0.010998,-0.075356 0.1398793,0.1470861 c 0.076939,0.0809 0.1799334,0.1901211 0.2288875,0.2427222 0.048954,0.0526 0.092402,0.092048 0.096539,0.087673 0.00413,-0.00443 0.1609123,-0.3148986 0.3483745,-0.6900393 L 6.8490466,4.0107774 7.0957696,4.1942593 C 7.2314677,4.295175 7.346581,4.3779478 7.3515774,4.3781994 7.3607275,4.3786782 7.7912379,3.6386487 8.005066,3.2548705 8.1837677,2.9341378 8.3997121,2.4942867 8.4377619,2.3735237 L 8.4721579,2.2643486 8.5955653,2.4192549 C 9.0442359,2.9824395 9.3398441,3.4616438 9.362798,3.6630006 l 0.00619,0.054133 0.3217551,0.00432 0.3217549,0.00432 1.59e-4,0.083358 c 5.82e-4,0.3119321 0.119519,0.9936541 0.210616,1.2071253 0.0358,0.083898 0.102126,0.1753605 0.127163,0.1753605 0.02222,0 0.164506,-0.1492123 0.283818,-0.2976205 0.1402,-0.1743843 0.313734,-0.4781889 0.389967,-0.6827041 0.01027,-0.027523 0.01487,-0.023543 0.03368,0.029116 0.04,0.1119898 0.170761,0.2880096 0.341573,0.4597981 l 0.169147,0.1701111 0.03465,0.1756357 c 0.07495,0.3799061 0.215764,0.7098623 0.378989,0.8880882 l 0.08649,0.094436 0.08932,-0.095645 c 0.130673,-0.1399177 0.279349,-0.3429573 0.339227,-0.4632741 0.02879,-0.057888 0.05438,-0.102859 0.05683,-0.09994 0.0024,0.00295 0.07179,0.081265 0.154087,0.1741075 0.455971,0.5143869 0.890737,1.094025 1.010543,1.3472761 0.0237,0.050104 0.04772,0.1227102 0.05335,0.1613514 l 0.01028,0.070255 0.166462,-0.1923988 c 0.09155,-0.1058183 0.168414,-0.1923979 0.170819,-0.1923979 0.0024,0 0.07548,0.1462652 0.162453,0.3250335 0.330812,0.6800638 0.789902,1.5343565 1.067424,1.9863025 0.159839,0.260294 0.194923,0.311992 0.294803,0.434372 0.03399,0.04164 0.05933,0.0755 0.05633,0.07524 -0.003,-2.58e-4 -0.251202,-0.1643 -0.551546,-0.364521 z m -2.680563,-0.329736 c 6.83e-4,-0.01856 0.0045,-0.02234 0.0096,-0.0096 0.0047,0.0115 0.004,0.02525 -0.0014,0.03055 -0.0052,0.0052 -0.0091,-0.0042 -0.0084,-0.02093 z"
       id="path826"
       inkscape:connector-curvature="0"
       inkscape:export-xdpi="392"
       inkscape:export-ydpi="392"
       inkscape:export-filename="montain-icon.svg" />
  </g>
</svg>
