<?xml version="1.0" encoding="UTF-8" standalone="no"?>
<!-- Created with Inkscape (http://www.inkscape.org/) -->

<svg
   width="51.759132mm"
   height="51.7397mm"
   viewBox="0 0 51.759132 51.7397"
   version="1.1"
   id="svg1"
   xml:space="preserve"
   xmlns:inkscape="http://www.inkscape.org/namespaces/inkscape"
   xmlns:sodipodi="http://sodipodi.sourceforge.net/DTD/sodipodi-0.dtd"
   xmlns="http://www.w3.org/2000/svg"
   xmlns:svg="http://www.w3.org/2000/svg"><sodipodi:namedview
     id="namedview1"
     pagecolor="#ffffff"
     bordercolor="#666666"
     borderopacity="1.0"
     inkscape:showpageshadow="2"
     inkscape:pageopacity="0.0"
     inkscape:pagecheckerboard="0"
     inkscape:deskcolor="#d1d1d1"
     inkscape:document-units="mm" /><defs
     id="defs1" /><g
     inkscape:label="Camada 1"
     inkscape:groupmode="layer"
     id="layer1"
     transform="translate(-5.4082986,-4.6710719)"><path
       style="fill:#000000"
       d="m 29.697637,56.317332 c -1.67655,-0.299972 -3.74359,-1.497196 -4.93461,-2.858114 -0.34182,-0.390579 -0.86415,-1.199823 -1.16074,-1.79832 -1.24141,-2.505089 -1.24404,-5.13157 -0.008,-7.665372 2.55894,-5.244305 9.61377,-6.432648 13.70783,-2.309003 1.0814,1.089215 1.68934,2.047895 2.19471,3.460961 0.31175,0.871676 0.35344,1.190856 0.34951,2.676411 -0.004,1.463149 -0.0508,1.817886 -0.35399,2.676453 -0.94698,2.681475 -2.94911,4.661611 -5.61263,5.550991 -0.99648,0.332735 -3.07173,0.464717 -4.1824,0.265993 z m 20.95274,-11.514485 c -0.81779,-0.260547 -1.3676,-0.728437 -1.74431,-1.484399 -0.57153,-1.146906 -0.37368,-2.344509 0.53793,-3.256119 0.91919,-0.919191 2.10879,-1.109677 3.28125,-0.525414 0.79616,0.396742 1.19071,0.877677 1.46342,1.783838 0.62477,2.075959 -1.47276,4.140176 -3.53829,3.482094 z M 13.030719,38.989726 c -1.681944,-0.599526 -2.380586,-2.823393 -1.348714,-4.29313 1.521346,-2.166916 4.932719,-1.293015 5.149338,1.319122 0.178799,2.156091 -1.784737,3.692569 -3.800624,2.974008 z m 2.479488,-11.411595 c -4.043365,-0.539185 -7.3231297,-2.946896 -9.0282027,-6.627702 -0.993972,-2.145723 -1.302287,-4.420258 -0.906325,-6.686234 0.419987,-2.403467 1.349454,-4.247193 3.025496,-6.0014864 2.3811557,-2.492328 5.5454287,-3.767278 8.8656107,-3.572134 1.668341,0.09806 2.773621,0.371331 4.229381,1.045689 3.74729,1.735872 6.12235,5.0225364 6.62665,9.1701354 0.50786,4.176896 -1.54746,8.55465 -5.09226,10.846306 -2.28191,1.475225 -5.190071,2.16284 -7.72035,1.825426 z m 34.95429,-0.01076 c -1.07771,-0.182512 -2.06702,-0.685869 -2.90421,-1.477646 -1.24741,-1.179751 -1.82432,-2.499576 -1.82432,-4.173624 0,-1.674049 0.57691,-2.993874 1.82432,-4.173625 2.2448,-2.123041 5.71253,-2.071908 7.89975,0.116485 3.956,3.958144 0.51681,10.641933 -4.99554,9.70841 z M 38.938517,13.08193 c -1.68195,-0.599526 -2.38059,-2.823393 -1.34872,-4.2931304 1.52135,-2.166916 4.93272,-1.293014 5.14934,1.3191224 0.1788,2.156091 -1.78474,3.692569 -3.80062,2.974008 z"
       id="path1" /></g></svg>
