<?xml version="1.0" encoding="UTF-8" standalone="no"?>
<!-- Created with Inkscape (http://www.inkscape.org/) -->

<svg
   width="28.909275mm"
   height="28.928946mm"
   viewBox="0 0 28.909275 28.928946"
   version="1.1"
   id="svg1"
   xml:space="preserve"
   xmlns:inkscape="http://www.inkscape.org/namespaces/inkscape"
   xmlns:sodipodi="http://sodipodi.sourceforge.net/DTD/sodipodi-0.dtd"
   xmlns="http://www.w3.org/2000/svg"
   xmlns:svg="http://www.w3.org/2000/svg"><sodipodi:namedview
     id="namedview1"
     pagecolor="#ffffff"
     bordercolor="#666666"
     borderopacity="1.0"
     inkscape:showpageshadow="2"
     inkscape:pageopacity="0.0"
     inkscape:pagecheckerboard="0"
     inkscape:deskcolor="#d1d1d1"
     inkscape:document-units="mm" /><defs
     id="defs1" /><g
     inkscape:label="Camada 1"
     inkscape:groupmode="layer"
     id="layer1"
     transform="translate(-2.0373259,-2.6520216)"><path
       style="fill:#000000"
       d="M 15.310562,31.540823 C 9.2277773,30.987109 4.2570663,26.871606 2.5655263,20.988563 c -0.85305,-2.966841 -0.667667,-6.278798 0.518635,-9.265668 1.922744,-4.8410811 6.454037,-8.3282987 11.6544177,-8.9690707 2.769342,-0.3412282 5.808898,0.1851713 8.266251,1.4315743 3.321451,1.6846863 5.937693,4.6697343 7.153682,8.1621234 0.564213,1.620454 0.785423,2.951407 0.788053,4.741487 0.002,1.33251 -0.07301,2.05938 -0.330918,3.208325 -1.21386,5.407686 -5.526472,9.720245 -10.932682,10.932547 -1.307899,0.293287 -3.137229,0.423379 -4.372403,0.310942 z m 3.378664,-1.128465 c 5.276621,-0.90885 9.511842,-4.777411 10.843208,-9.904472 0.336665,-1.29649 0.399786,-1.831806 0.399786,-3.390485 0,-1.558453 -0.06313,-2.09403 -0.399561,-3.389632 C 28.80541,10.92711 27.17343,8.4142359 24.907102,6.6054789 23.049321,5.1227821 20.905519,4.1723938 18.568986,3.7956708 17.687796,3.653595 15.841871,3.62712 14.88468,3.7428288 c -2.043088,0.2469763 -4.077384,0.9986511 -5.8203867,2.150639 -1.003744,0.663397 -2.055581,1.596085 -2.795864,2.479156 -1.425471,1.7004222 -2.328888,3.4655362 -2.848194,5.5648572 -0.263464,1.065068 -0.375073,2.011444 -0.375073,3.180382 0,2.199683 0.460782,4.128047 1.453628,6.08341 1.516358,2.986395 4.063055,5.280324 7.2142927,6.49825 1.036854,0.400735 2.223978,0.682601 3.540695,0.84069 0.10931,0.01312 0.773685,0.01613 1.476391,0.0067 0.971078,-0.01305 1.441149,-0.04534 1.959057,-0.134542 z m -3.179919,-4.672691 c -2.863375,-0.320651 -5.453594,-2.135521 -6.7543827,-4.732544 -0.36247,-0.723672 -0.597273,-1.402527 -0.775804,-2.242978 -0.167563,-0.788824 -0.183477,-2.370986 -0.0317,-3.151527 0.5,-2.571317 1.99795,-4.710361 4.2046667,-6.0041885 0.442492,-0.259438 1.350258,-0.6679636 1.484253,-0.6679636 0.06809,0 0.08426,0.0956 0.08426,0.4981066 v 0.498107 l -0.496862,0.2347185 c -2.077466,0.981393 -3.6250287,2.877572 -4.1922757,5.13666 -0.180684,0.719581 -0.248826,2.085509 -0.141691,2.8402 0.4793,3.376306 3.0803987,6.026257 6.4369947,6.55789 0.693494,0.109839 2.116383,0.07866 2.73783,-0.06 3.16952,-0.707176 5.526265,-3.189834 6.026554,-6.348535 0.144668,-0.913396 0.08613,-2.205573 -0.13836,-3.054094 -0.592678,-2.240202 -2.073938,-4.059069 -4.10214,-5.037097 l -0.564545,-0.2722325 -3.24e-4,-0.503961 -3.24e-4,-0.5039596 0.166664,0.03333 c 0.279801,0.05596 1.221226,0.5209286 1.74819,0.8634296 2.371692,1.5414845 3.819105,4.0524955 3.970935,6.8888905 0.08026,1.499351 -0.305666,3.194622 -1.02973,4.523337 -1.701081,3.121623 -5.107466,4.899121 -8.632212,4.504407 z m 0.670382,-9.156786 -0.159324,-0.137031 -0.01596,-4.647044 c -0.0088,-2.5558745 -0.0021,-4.7038311 0.01488,-4.7732371 0.114551,-0.468646 0.852938,-0.468646 0.967489,0 0.01696,0.06941 0.02366,2.2173626 0.01488,4.7732371 l -0.01596,4.647044 -0.159323,0.137031 c -0.08889,0.07645 -0.231834,0.13703 -0.323343,0.13703 -0.09151,0 -0.234454,-0.06058 -0.323343,-0.13703 z"
       id="path1"
       inkscape:export-filename="poweroff-icon.svg"
       inkscape:export-xdpi="392"
       inkscape:export-ydpi="392" /></g></svg>
